<svg width="381" height="70" viewBox="0 0 381 70" fill="none" xmlns="http://www.w3.org/2000/svg">
<rect x="1.125" y="1.25" width="378.75" height="67.5" rx="11.25" fill="white" stroke="black" stroke-width="1.5"/>
<path d="M61.6094 23.5391L57.5391 40.0859L64.3672 39.1953V44.9141L47.4688 46.3672L55.125 23.8828L61.6094 23.5391ZM83.3281 23.4297V28.4766L75.5547 29.9219L75.2812 31.2969H79.8203L78.5156 36.4844L74.1172 37.5L73.7031 39.8125H73.7656L81.6797 38.5078V44.2812L65.5156 45.4375L70.9453 23.4297H83.3281ZM85.8047 22.7656H103.766L100.523 29.8594L95.9453 29.9297V29.9922L93.3594 46.0391L84.4062 47.2344L88.7188 30.0625L84.3438 30.1953L85.8047 22.7656ZM106.999 29.752C106.903 30.1253 106.78 30.5307 106.631 30.968C106.481 31.4053 106.316 31.8427 106.135 32.28C105.964 32.7067 105.793 33.112 105.623 33.496H104.583C104.657 33.1973 104.732 32.8773 104.807 32.536C104.892 32.1947 104.967 31.8533 105.031 31.512C105.105 31.16 105.169 30.8187 105.223 30.488C105.287 30.1573 105.34 29.8533 105.383 29.576H106.887L106.999 29.752ZM115.414 23.1641H133.312V23.2344L129.867 30.3906H122.57L129.469 36.8906C126.859 42.5469 125.555 45.3984 125.555 45.4453L107.742 45.4609L110.883 38.2188H117.602C113.586 34.599 111.576 32.763 111.57 32.7109V32.6484L115.414 23.1641ZM157.922 23.0312L158.203 29.4062L149.82 29.8672L148.695 39.4219L152.148 39.1172V39.0469L150.18 38.2891L150.25 35.0234H157.57L157.5 45.5L140.812 46.1016V46.0312L144.609 24.6328L157.922 23.0312ZM176.922 23.4297V28.4766L169.148 29.9219L168.875 31.2969H173.414L172.109 36.4844L167.711 37.5L167.297 39.8125H167.359L175.273 38.5078V44.2812L159.109 45.4375L164.539 23.4297H176.922ZM179.398 22.7656H197.359L194.117 29.8594L189.539 29.9297V29.9922L186.953 46.0391L178 47.2344L182.312 30.0625L177.938 30.1953L179.398 22.7656ZM212.617 23.1641H230.516V23.2344L227.07 30.3906H219.773L226.672 36.8906C224.062 42.5469 222.758 45.3984 222.758 45.4453L204.945 45.4609L208.086 38.2188H214.805C210.789 34.599 208.779 32.763 208.773 32.7109V32.6484L212.617 23.1641ZM232.586 22.7656H250.547L247.305 29.8594L242.727 29.9297V29.9922L240.141 46.0391L231.188 47.2344L235.5 30.0625L231.125 30.1953L232.586 22.7656ZM262.43 22.9844V46.2422L255.07 47.4531L255.844 41.2656H253.688L252.445 46.7422L245.789 45.8203L252.055 23.625L262.43 22.9844ZM256.391 29.4531L254.766 36.5703L256.547 36.0703L257.359 29.4531H256.391ZM284.055 23.2891L281.805 34.4609H279.695L284.586 44.8359L276.781 46.0938L274.07 37.4375H274.008L272.883 45.3672C266.669 46.3776 263.542 46.8828 263.5 46.8828L269.516 23.2266L284.055 23.2891ZM275.266 28.1797L274.805 31.2266L275.75 31.1406L275.992 28.3125L275.266 28.1797ZM287.43 22.7656H305.391L302.148 29.8594L297.57 29.9297V29.9922L294.984 46.0391L286.031 47.2344L290.344 30.0625L285.969 30.1953L287.43 22.7656ZM319.312 23.4297V28.4766L311.539 29.9219L311.266 31.2969H315.805L314.5 36.4844L310.102 37.5L309.688 39.8125H309.75L317.664 38.5078V44.2812L301.5 45.4375L306.93 23.4297H319.312ZM323.219 23.2578L333.75 23.4844L335.812 25.7734L334.586 42.7891L332.758 44.1719L318.867 46.1562L323.219 23.2578ZM328.719 29.8906L327.562 38.6016L329.398 37.6016L329.633 30.3516L328.719 29.8906Z" fill="black"/>
</svg>
