<svg width="381" height="70" viewBox="0 0 381 70" fill="none" xmlns="http://www.w3.org/2000/svg">
<rect x="1.125" y="1.25" width="378.75" height="67.5" rx="11.25" fill="#CC0000" stroke="black" stroke-width="1.5"/>
<mask id="path-2-outside-1_414_375" maskUnits="userSpaceOnUse" x="45" y="21" width="293" height="29" fill="black">
<rect fill="white" x="45" y="21" width="293" height="29"/>
<path d="M61.6094 23.5391L57.5391 40.0859L64.3672 39.1953V44.9141L47.4688 46.3672L55.125 23.8828L61.6094 23.5391ZM83.3281 23.4297V28.4766L75.5547 29.9219L75.2812 31.2969H79.8203L78.5156 36.4844L74.1172 37.5L73.7031 39.8125H73.7656L81.6797 38.5078V44.2812L65.5156 45.4375L70.9453 23.4297H83.3281ZM85.8047 22.7656H103.766L100.523 29.8594L95.9453 29.9297V29.9922L93.3594 46.0391L84.4062 47.2344L88.7188 30.0625L84.3438 30.1953L85.8047 22.7656ZM106.999 29.752C106.903 30.1253 106.78 30.5307 106.631 30.968C106.481 31.4053 106.316 31.8427 106.135 32.28C105.964 32.7067 105.793 33.112 105.623 33.496H104.583C104.657 33.1973 104.732 32.8773 104.807 32.536C104.892 32.1947 104.967 31.8533 105.031 31.512C105.105 31.16 105.169 30.8187 105.223 30.488C105.287 30.1573 105.34 29.8533 105.383 29.576H106.887L106.999 29.752ZM115.414 23.1641H133.312V23.2344L129.867 30.3906H122.57L129.469 36.8906C126.859 42.5469 125.555 45.3984 125.555 45.4453L107.742 45.4609L110.883 38.2188H117.602C113.586 34.599 111.576 32.763 111.57 32.7109V32.6484L115.414 23.1641ZM157.922 23.0312L158.203 29.4062L149.82 29.8672L148.695 39.4219L152.148 39.1172V39.0469L150.18 38.2891L150.25 35.0234H157.57L157.5 45.5L140.812 46.1016V46.0312L144.609 24.6328L157.922 23.0312ZM176.922 23.4297V28.4766L169.148 29.9219L168.875 31.2969H173.414L172.109 36.4844L167.711 37.5L167.297 39.8125H167.359L175.273 38.5078V44.2812L159.109 45.4375L164.539 23.4297H176.922ZM179.398 22.7656H197.359L194.117 29.8594L189.539 29.9297V29.9922L186.953 46.0391L178 47.2344L182.312 30.0625L177.938 30.1953L179.398 22.7656ZM212.617 23.1641H230.516V23.2344L227.07 30.3906H219.773L226.672 36.8906C224.062 42.5469 222.758 45.3984 222.758 45.4453L204.945 45.4609L208.086 38.2188H214.805C210.789 34.599 208.779 32.763 208.773 32.7109V32.6484L212.617 23.1641ZM232.586 22.7656H250.547L247.305 29.8594L242.727 29.9297V29.9922L240.141 46.0391L231.188 47.2344L235.5 30.0625L231.125 30.1953L232.586 22.7656ZM262.43 22.9844V46.2422L255.07 47.4531L255.844 41.2656H253.688L252.445 46.7422L245.789 45.8203L252.055 23.625L262.43 22.9844ZM256.391 29.4531L254.766 36.5703L256.547 36.0703L257.359 29.4531H256.391ZM284.055 23.2891L281.805 34.4609H279.695L284.586 44.8359L276.781 46.0938L274.07 37.4375H274.008L272.883 45.3672C266.669 46.3776 263.542 46.8828 263.5 46.8828L269.516 23.2266L284.055 23.2891ZM275.266 28.1797L274.805 31.2266L275.75 31.1406L275.992 28.3125L275.266 28.1797ZM287.43 22.7656H305.391L302.148 29.8594L297.57 29.9297V29.9922L294.984 46.0391L286.031 47.2344L290.344 30.0625L285.969 30.1953L287.43 22.7656ZM319.312 23.4297V28.4766L311.539 29.9219L311.266 31.2969H315.805L314.5 36.4844L310.102 37.5L309.688 39.8125H309.75L317.664 38.5078V44.2812L301.5 45.4375L306.93 23.4297H319.312ZM323.219 23.2578L333.75 23.4844L335.812 25.7734L334.586 42.7891L332.758 44.1719L318.867 46.1562L323.219 23.2578ZM328.719 29.8906L327.562 38.6016L329.398 37.6016L329.633 30.3516L328.719 29.8906Z"/>
</mask>
<path d="M61.6094 23.5391L57.5391 40.0859L64.3672 39.1953V44.9141L47.4688 46.3672L55.125 23.8828L61.6094 23.5391ZM83.3281 23.4297V28.4766L75.5547 29.9219L75.2812 31.2969H79.8203L78.5156 36.4844L74.1172 37.5L73.7031 39.8125H73.7656L81.6797 38.5078V44.2812L65.5156 45.4375L70.9453 23.4297H83.3281ZM85.8047 22.7656H103.766L100.523 29.8594L95.9453 29.9297V29.9922L93.3594 46.0391L84.4062 47.2344L88.7188 30.0625L84.3438 30.1953L85.8047 22.7656ZM106.999 29.752C106.903 30.1253 106.78 30.5307 106.631 30.968C106.481 31.4053 106.316 31.8427 106.135 32.28C105.964 32.7067 105.793 33.112 105.623 33.496H104.583C104.657 33.1973 104.732 32.8773 104.807 32.536C104.892 32.1947 104.967 31.8533 105.031 31.512C105.105 31.16 105.169 30.8187 105.223 30.488C105.287 30.1573 105.34 29.8533 105.383 29.576H106.887L106.999 29.752ZM115.414 23.1641H133.312V23.2344L129.867 30.3906H122.57L129.469 36.8906C126.859 42.5469 125.555 45.3984 125.555 45.4453L107.742 45.4609L110.883 38.2188H117.602C113.586 34.599 111.576 32.763 111.57 32.7109V32.6484L115.414 23.1641ZM157.922 23.0312L158.203 29.4062L149.82 29.8672L148.695 39.4219L152.148 39.1172V39.0469L150.18 38.2891L150.25 35.0234H157.57L157.5 45.5L140.812 46.1016V46.0312L144.609 24.6328L157.922 23.0312ZM176.922 23.4297V28.4766L169.148 29.9219L168.875 31.2969H173.414L172.109 36.4844L167.711 37.5L167.297 39.8125H167.359L175.273 38.5078V44.2812L159.109 45.4375L164.539 23.4297H176.922ZM179.398 22.7656H197.359L194.117 29.8594L189.539 29.9297V29.9922L186.953 46.0391L178 47.2344L182.312 30.0625L177.938 30.1953L179.398 22.7656ZM212.617 23.1641H230.516V23.2344L227.07 30.3906H219.773L226.672 36.8906C224.062 42.5469 222.758 45.3984 222.758 45.4453L204.945 45.4609L208.086 38.2188H214.805C210.789 34.599 208.779 32.763 208.773 32.7109V32.6484L212.617 23.1641ZM232.586 22.7656H250.547L247.305 29.8594L242.727 29.9297V29.9922L240.141 46.0391L231.188 47.2344L235.5 30.0625L231.125 30.1953L232.586 22.7656ZM262.43 22.9844V46.2422L255.07 47.4531L255.844 41.2656H253.688L252.445 46.7422L245.789 45.8203L252.055 23.625L262.43 22.9844ZM256.391 29.4531L254.766 36.5703L256.547 36.0703L257.359 29.4531H256.391ZM284.055 23.2891L281.805 34.4609H279.695L284.586 44.8359L276.781 46.0938L274.07 37.4375H274.008L272.883 45.3672C266.669 46.3776 263.542 46.8828 263.5 46.8828L269.516 23.2266L284.055 23.2891ZM275.266 28.1797L274.805 31.2266L275.75 31.1406L275.992 28.3125L275.266 28.1797ZM287.43 22.7656H305.391L302.148 29.8594L297.57 29.9297V29.9922L294.984 46.0391L286.031 47.2344L290.344 30.0625L285.969 30.1953L287.43 22.7656ZM319.312 23.4297V28.4766L311.539 29.9219L311.266 31.2969H315.805L314.5 36.4844L310.102 37.5L309.688 39.8125H309.75L317.664 38.5078V44.2812L301.5 45.4375L306.93 23.4297H319.312ZM323.219 23.2578L333.75 23.4844L335.812 25.7734L334.586 42.7891L332.758 44.1719L318.867 46.1562L323.219 23.2578ZM328.719 29.8906L327.562 38.6016L329.398 37.6016L329.633 30.3516L328.719 29.8906Z" fill="white"/>
<path d="M61.6094 23.5391L63.066 23.8974L63.5489 21.9341L61.53 22.0412L61.6094 23.5391ZM57.5391 40.0859L56.0825 39.7276L55.5587 41.857L57.7331 41.5733L57.5391 40.0859ZM64.3672 39.1953H65.8672V37.487L64.1732 37.7079L64.3672 39.1953ZM64.3672 44.9141L64.4957 46.4085L65.8672 46.2906V44.9141H64.3672ZM47.4688 46.3672L46.0488 45.8837L45.3083 48.0585L47.5973 47.8617L47.4688 46.3672ZM55.125 23.8828L55.0456 22.3849L54.0322 22.4386L53.7051 23.3993L55.125 23.8828ZM60.1528 23.1808L56.0825 39.7276L58.9956 40.4442L63.066 23.8974L60.1528 23.1808ZM57.7331 41.5733L64.5612 40.6827L64.1732 37.7079L57.3451 38.5985L57.7331 41.5733ZM62.8672 39.1953V44.9141H65.8672V39.1953H62.8672ZM64.2387 43.4196L47.3402 44.8727L47.5973 47.8617L64.4957 46.4085L64.2387 43.4196ZM48.8887 46.8507L56.5449 24.3663L53.7051 23.3993L46.0488 45.8837L48.8887 46.8507ZM55.2044 25.3807L61.6888 25.037L61.53 22.0412L55.0456 22.3849L55.2044 25.3807ZM83.3281 23.4297H84.8281V21.9297H83.3281V23.4297ZM83.3281 28.4766L83.6023 29.9513L84.8281 29.7234V28.4766H83.3281ZM75.5547 29.9219L75.2805 28.4471L74.2817 28.6329L74.0835 29.6293L75.5547 29.9219ZM75.2812 31.2969L73.8101 31.0043L73.4536 32.7969H75.2812V31.2969ZM79.8203 31.2969L81.275 31.6627L81.7443 29.7969H79.8203V31.2969ZM78.5156 36.4844L78.8531 37.9459L79.7466 37.7396L79.9703 36.8502L78.5156 36.4844ZM74.1172 37.5L73.7797 36.0385L72.8151 36.2612L72.6407 37.2356L74.1172 37.5ZM73.7031 39.8125L72.2266 39.5481L71.9107 41.3125H73.7031V39.8125ZM73.7656 39.8125V41.3125H73.8884L74.0096 41.2925L73.7656 39.8125ZM81.6797 38.5078H83.1797V36.7403L81.4357 37.0278L81.6797 38.5078ZM81.6797 44.2812L81.7867 45.7774L83.1797 45.6778V44.2812H81.6797ZM65.5156 45.4375L64.0593 45.0782L63.5652 47.0809L65.6227 46.9337L65.5156 45.4375ZM70.9453 23.4297V21.9297H69.7704L69.489 23.0704L70.9453 23.4297ZM81.8281 23.4297V28.4766H84.8281V23.4297H81.8281ZM83.0539 27.0018L75.2805 28.4471L75.8289 31.3966L83.6023 29.9513L83.0539 27.0018ZM74.0835 29.6293L73.8101 31.0043L76.7524 31.5894L77.0259 30.2144L74.0835 29.6293ZM75.2812 32.7969H79.8203V29.7969H75.2812V32.7969ZM78.3656 30.931L77.0609 36.1185L79.9703 36.8502L81.275 31.6627L78.3656 30.931ZM78.1781 35.0228L73.7797 36.0385L74.4547 38.9615L78.8531 37.9459L78.1781 35.0228ZM72.6407 37.2356L72.2266 39.5481L75.1796 40.0769L75.5937 37.7644L72.6407 37.2356ZM73.7031 41.3125H73.7656V38.3125H73.7031V41.3125ZM74.0096 41.2925L81.9237 39.9878L81.4357 37.0278L73.5216 38.3325L74.0096 41.2925ZM80.1797 38.5078V44.2812H83.1797V38.5078H80.1797ZM81.5727 42.7851L65.4086 43.9413L65.6227 46.9337L81.7867 45.7774L81.5727 42.7851ZM66.972 45.7968L72.4016 23.789L69.489 23.0704L64.0593 45.0782L66.972 45.7968ZM70.9453 24.9297H83.3281V21.9297H70.9453V24.9297ZM85.8047 22.7656V21.2656H84.5709L84.3329 22.4762L85.8047 22.7656ZM103.766 22.7656L105.13 23.3892L106.1 21.2656H103.766V22.7656ZM100.523 29.8594L100.546 31.3592L101.494 31.3446L101.888 30.4829L100.523 29.8594ZM95.9453 29.9297L95.9223 28.4299L94.4453 28.4525V29.9297H95.9453ZM95.9453 29.9922L97.4262 30.2308L97.4453 30.1123V29.9922H95.9453ZM93.3594 46.0391L93.5579 47.5259L94.6629 47.3783L94.8403 46.2777L93.3594 46.0391ZM84.4062 47.2344L82.9514 46.869L82.4128 49.0138L84.6048 48.7212L84.4062 47.2344ZM88.7188 30.0625L90.1736 30.4279L90.657 28.503L88.6732 28.5632L88.7188 30.0625ZM84.3438 30.1953L82.8719 29.9059L82.509 31.7517L84.3893 31.6946L84.3438 30.1953ZM85.8047 24.2656H103.766V21.2656H85.8047V24.2656ZM102.401 22.1421L99.1592 29.2358L101.888 30.4829L105.13 23.3892L102.401 22.1421ZM100.5 28.3596L95.9223 28.4299L95.9683 31.4295L100.546 31.3592L100.5 28.3596ZM94.4453 29.9297V29.9922H97.4453V29.9297H94.4453ZM94.4644 29.7535L91.8785 45.8004L94.8403 46.2777L97.4262 30.2308L94.4644 29.7535ZM93.1609 44.5523L84.2077 45.7476L84.6048 48.7212L93.5579 47.5259L93.1609 44.5523ZM85.8611 47.5997L90.1736 30.4279L87.2639 29.6971L82.9514 46.869L85.8611 47.5997ZM88.6732 28.5632L84.2982 28.696L84.3893 31.6946L88.7643 31.5618L88.6732 28.5632ZM85.8156 30.4847L87.2765 23.055L84.3329 22.4762L82.8719 29.9059L85.8156 30.4847ZM106.999 29.752L108.451 30.1256L108.613 29.4955L108.264 28.9467L106.999 29.752ZM106.631 30.968L105.211 30.4833V30.4833L106.631 30.968ZM106.135 32.28L104.749 31.7055L104.745 31.7142L104.742 31.7229L106.135 32.28ZM105.623 33.496V34.996H106.597L106.993 34.1052L105.623 33.496ZM104.583 33.496L103.127 33.1322L102.661 34.996H104.583V33.496ZM104.807 32.536L103.351 32.1722L103.346 32.1938L103.341 32.2155L104.807 32.536ZM105.031 31.512L103.563 31.2007L103.56 31.2181L103.556 31.2356L105.031 31.512ZM105.223 30.488L103.75 30.203L103.745 30.226L103.742 30.2492L105.223 30.488ZM105.383 29.576V28.076H104.096L103.9 29.3479L105.383 29.576ZM106.887 29.576L108.152 28.7707L107.71 28.076H106.887V29.576ZM105.546 29.3784C105.461 29.7078 105.35 30.0756 105.211 30.4833L108.05 31.4527C108.21 30.9857 108.344 30.5428 108.451 30.1256L105.546 29.3784ZM105.211 30.4833C105.072 30.8896 104.918 31.297 104.749 31.7055L107.52 32.8545C107.714 32.3883 107.89 31.9211 108.05 31.4527L105.211 30.4833ZM104.742 31.7229C104.578 32.1337 104.414 32.5215 104.252 32.8868L106.993 34.1052C107.172 33.7025 107.35 33.2797 107.527 32.8371L104.742 31.7229ZM105.623 31.996H104.583V34.996H105.623V31.996ZM106.038 33.8598C106.117 33.545 106.195 33.2105 106.272 32.8565L103.341 32.2155C103.269 32.5442 103.198 32.8497 103.127 33.1322L106.038 33.8598ZM106.262 32.8998C106.354 32.5299 106.435 32.1595 106.505 31.7884L103.556 31.2356C103.498 31.5472 103.43 31.8594 103.351 32.1722L106.262 32.8998ZM106.498 31.8233C106.577 31.449 106.646 31.0835 106.703 30.7268L103.742 30.2492C103.693 30.5539 103.633 30.871 103.563 31.2007L106.498 31.8233ZM106.695 30.773C106.762 30.4271 106.819 30.1038 106.865 29.8041L103.9 29.3479C103.861 29.6029 103.811 29.8876 103.75 30.203L106.695 30.773ZM105.383 31.076H106.887V28.076H105.383V31.076ZM105.621 30.3813L105.733 30.5573L108.264 28.9467L108.152 28.7707L105.621 30.3813ZM115.414 23.1641V21.6641H114.403L114.024 22.6007L115.414 23.1641ZM133.312 23.1641H134.812V21.6641H133.312V23.1641ZM133.312 23.2344L134.664 23.8851L134.812 23.5767V23.2344H133.312ZM129.867 30.3906V31.8906H130.81L131.219 31.0413L129.867 30.3906ZM122.57 30.3906V28.8906H118.791L121.542 31.4823L122.57 30.3906ZM129.469 36.8906L130.831 37.519L131.283 36.539L130.497 35.7989L129.469 36.8906ZM125.555 45.4453L125.556 46.9453L127.055 46.944V45.4453H125.555ZM107.742 45.4609L106.366 44.8642L105.456 46.9629L107.744 46.9609L107.742 45.4609ZM110.883 38.2188V36.7188H109.898L109.507 37.622L110.883 38.2188ZM117.602 38.2188V39.7188H121.506L118.606 37.1046L117.602 38.2188ZM111.57 32.7109H110.07V32.7858L110.078 32.8602L111.57 32.7109ZM111.57 32.6484L110.18 32.085L110.07 32.356V32.6484H111.57ZM115.414 24.6641H133.312V21.6641H115.414V24.6641ZM131.812 23.1641V23.2344H134.812V23.1641H131.812ZM131.961 22.5837L128.516 29.7399L131.219 31.0413L134.664 23.8851L131.961 22.5837ZM129.867 28.8906H122.57V31.8906H129.867V28.8906ZM121.542 31.4823L128.44 37.9823L130.497 35.7989L123.599 29.2989L121.542 31.4823ZM128.107 36.2623C126.802 39.0907 125.823 41.2194 125.169 42.6474C124.843 43.361 124.597 43.9019 124.432 44.2686C124.349 44.4511 124.285 44.5949 124.241 44.6967C124.219 44.7463 124.199 44.794 124.182 44.8342C124.175 44.8525 124.163 44.8825 124.15 44.9159C124.145 44.9308 124.133 44.9641 124.12 45.006C124.114 45.0263 124.103 45.0653 124.091 45.1148C124.086 45.1398 124.055 45.2728 124.055 45.4453H127.055C127.055 45.6171 127.024 45.749 127.018 45.7726C127.008 45.8207 126.997 45.8579 126.991 45.8761C126.98 45.9138 126.97 45.9415 126.967 45.9495C126.96 45.969 126.955 45.9796 126.958 45.9731C126.962 45.9636 126.972 45.9397 126.991 45.8958C127.028 45.8106 127.086 45.6798 127.167 45.5C127.328 45.142 127.571 44.6078 127.897 43.8956C128.549 42.472 129.526 40.3468 130.831 37.519L128.107 36.2623ZM125.553 43.9453L107.741 43.9609L107.744 46.9609L125.556 46.9453L125.553 43.9453ZM109.118 46.0577L112.259 38.8155L109.507 37.622L106.366 44.8642L109.118 46.0577ZM110.883 39.7188H117.602V36.7188H110.883V39.7188ZM118.606 37.1046C116.599 35.2952 115.095 33.9339 114.094 33.0193C113.592 32.5614 113.22 32.219 112.976 31.9897C112.852 31.8738 112.768 31.7937 112.718 31.7445C112.691 31.7179 112.686 31.7123 112.693 31.72C112.694 31.7211 112.718 31.7465 112.749 31.7854C112.763 31.8027 112.8 31.8498 112.841 31.9156C112.862 31.9485 112.898 32.0088 112.935 32.089C112.963 32.151 113.039 32.324 113.063 32.5617L110.078 32.8602C110.102 33.0987 110.178 33.2728 110.207 33.336C110.244 33.4174 110.281 33.4792 110.303 33.5137C110.346 33.583 110.386 33.6343 110.404 33.6567C110.443 33.7058 110.479 33.7449 110.496 33.7632C110.536 33.8053 110.578 33.848 110.615 33.8836C110.691 33.959 110.797 34.0591 110.925 34.1792C111.184 34.4219 111.567 34.7746 112.071 35.2346C113.079 36.1559 114.589 37.5225 116.597 39.3329L118.606 37.1046ZM113.07 32.7109V32.6484H110.07V32.7109H113.07ZM112.96 33.2118L116.804 23.7275L114.024 22.6007L110.18 32.085L112.96 33.2118ZM157.922 23.0312L159.42 22.9651L159.349 21.3487L157.743 21.542L157.922 23.0312ZM158.203 29.4062L158.285 30.904L159.767 30.8225L159.702 29.3401L158.203 29.4062ZM149.82 29.8672L149.738 28.3694L148.478 28.4387L148.331 29.6918L149.82 29.8672ZM148.695 39.4219L147.206 39.2465L146.99 41.0782L148.827 40.9161L148.695 39.4219ZM152.148 39.1172L152.28 40.6114L153.648 40.4907V39.1172H152.148ZM152.148 39.0469H153.648V38.017L152.687 37.647L152.148 39.0469ZM150.18 38.2891L148.68 38.2568L148.657 39.3104L149.641 39.6889L150.18 38.2891ZM150.25 35.0234V33.5234H148.782L148.75 34.9911L150.25 35.0234ZM157.57 35.0234L159.07 35.0335L159.08 33.5234H157.57V35.0234ZM157.5 45.5L157.554 46.999L158.99 46.9473L159 45.5101L157.5 45.5ZM140.812 46.1016H139.312V47.6566L140.867 47.6006L140.812 46.1016ZM140.812 46.0312L139.336 45.7692L139.312 45.8992V46.0312H140.812ZM144.609 24.6328L144.43 23.1436L143.327 23.2763L143.132 24.3708L144.609 24.6328ZM156.423 23.0974L156.705 29.4724L159.702 29.3401L159.42 22.9651L156.423 23.0974ZM158.121 27.9085L149.738 28.3694L149.903 31.3649L158.285 30.904L158.121 27.9085ZM148.331 29.6918L147.206 39.2465L150.185 39.5973L151.31 30.0426L148.331 29.6918ZM148.827 40.9161L152.28 40.6114L152.017 37.623L148.563 37.9277L148.827 40.9161ZM153.648 39.1172V39.0469H150.648V39.1172H153.648ZM152.687 37.647L150.719 36.8892L149.641 39.6889L151.61 40.4468L152.687 37.647ZM151.679 38.3214L151.75 35.0557L148.75 34.9911L148.68 38.2568L151.679 38.3214ZM150.25 36.5234H157.57V33.5234H150.25V36.5234ZM156.07 35.0134L156 45.4899L159 45.5101L159.07 35.0335L156.07 35.0134ZM157.446 44.001L140.758 44.6025L140.867 47.6006L157.554 46.999L157.446 44.001ZM142.312 46.1016V46.0312H139.312V46.1016H142.312ZM142.289 46.2933L146.086 24.8949L143.132 24.3708L139.336 45.7692L142.289 46.2933ZM144.789 26.1221L158.101 24.5205L157.743 21.542L144.43 23.1436L144.789 26.1221ZM176.922 23.4297H178.422V21.9297H176.922V23.4297ZM176.922 28.4766L177.196 29.9513L178.422 29.7234V28.4766H176.922ZM169.148 29.9219L168.874 28.4471L167.875 28.6329L167.677 29.6293L169.148 29.9219ZM168.875 31.2969L167.404 31.0043L167.047 32.7969H168.875V31.2969ZM173.414 31.2969L174.869 31.6627L175.338 29.7969H173.414V31.2969ZM172.109 36.4844L172.447 37.9459L173.34 37.7396L173.564 36.8502L172.109 36.4844ZM167.711 37.5L167.373 36.0385L166.409 36.2612L166.234 37.2356L167.711 37.5ZM167.297 39.8125L165.82 39.5481L165.504 41.3125H167.297V39.8125ZM167.359 39.8125V41.3125H167.482L167.603 41.2925L167.359 39.8125ZM175.273 38.5078H176.773V36.7403L175.029 37.0278L175.273 38.5078ZM175.273 44.2812L175.38 45.7774L176.773 45.6778V44.2812H175.273ZM159.109 45.4375L157.653 45.0782L157.159 47.0809L159.216 46.9337L159.109 45.4375ZM164.539 23.4297V21.9297H163.364L163.083 23.0704L164.539 23.4297ZM175.422 23.4297V28.4766H178.422V23.4297H175.422ZM176.648 27.0018L168.874 28.4471L169.423 31.3966L177.196 29.9513L176.648 27.0018ZM167.677 29.6293L167.404 31.0043L170.346 31.5894L170.62 30.2144L167.677 29.6293ZM168.875 32.7969H173.414V29.7969H168.875V32.7969ZM171.959 30.931L170.655 36.1185L173.564 36.8502L174.869 31.6627L171.959 30.931ZM171.772 35.0228L167.373 36.0385L168.048 38.9615L172.447 37.9459L171.772 35.0228ZM166.234 37.2356L165.82 39.5481L168.773 40.0769L169.187 37.7644L166.234 37.2356ZM167.297 41.3125H167.359V38.3125H167.297V41.3125ZM167.603 41.2925L175.517 39.9878L175.029 37.0278L167.115 38.3325L167.603 41.2925ZM173.773 38.5078V44.2812H176.773V38.5078H173.773ZM175.166 42.7851L159.002 43.9413L159.216 46.9337L175.38 45.7774L175.166 42.7851ZM160.566 45.7968L165.995 23.789L163.083 23.0704L157.653 45.0782L160.566 45.7968ZM164.539 24.9297H176.922V21.9297H164.539V24.9297ZM179.398 22.7656V21.2656H178.165L177.927 22.4762L179.398 22.7656ZM197.359 22.7656L198.724 23.3892L199.694 21.2656H197.359V22.7656ZM194.117 29.8594L194.14 31.3592L195.088 31.3446L195.481 30.4829L194.117 29.8594ZM189.539 29.9297L189.516 28.4299L188.039 28.4525V29.9297H189.539ZM189.539 29.9922L191.02 30.2308L191.039 30.1123V29.9922H189.539ZM186.953 46.0391L187.152 47.5259L188.257 47.3783L188.434 46.2777L186.953 46.0391ZM178 47.2344L176.545 46.869L176.007 49.0138L178.199 48.7212L178 47.2344ZM182.312 30.0625L183.767 30.4279L184.251 28.503L182.267 28.5632L182.312 30.0625ZM177.938 30.1953L176.466 29.9059L176.103 31.7517L177.983 31.6946L177.938 30.1953ZM179.398 24.2656H197.359V21.2656H179.398V24.2656ZM195.995 22.1421L192.753 29.2358L195.481 30.4829L198.724 23.3892L195.995 22.1421ZM194.094 28.3596L189.516 28.4299L189.562 31.4295L194.14 31.3592L194.094 28.3596ZM188.039 29.9297V29.9922H191.039V29.9297H188.039ZM188.058 29.7535L185.472 45.8004L188.434 46.2777L191.02 30.2308L188.058 29.7535ZM186.755 44.5523L177.801 45.7476L178.199 48.7212L187.152 47.5259L186.755 44.5523ZM179.455 47.5997L183.767 30.4279L180.858 29.6971L176.545 46.869L179.455 47.5997ZM182.267 28.5632L177.892 28.696L177.983 31.6946L182.358 31.5618L182.267 28.5632ZM179.409 30.4847L180.87 23.055L177.927 22.4762L176.466 29.9059L179.409 30.4847ZM212.617 23.1641V21.6641H211.607L211.227 22.6007L212.617 23.1641ZM230.516 23.1641H232.016V21.6641H230.516V23.1641ZM230.516 23.2344L231.867 23.8851L232.016 23.5767V23.2344H230.516ZM227.07 30.3906V31.8906H228.013L228.422 31.0413L227.07 30.3906ZM219.773 30.3906V28.8906H215.994L218.745 31.4823L219.773 30.3906ZM226.672 36.8906L228.034 37.519L228.486 36.539L227.701 35.7989L226.672 36.8906ZM222.758 45.4453L222.759 46.9453L224.258 46.944V45.4453H222.758ZM204.945 45.4609L203.569 44.8642L202.659 46.9629L204.947 46.9609L204.945 45.4609ZM208.086 38.2188V36.7188H207.101L206.71 37.622L208.086 38.2188ZM214.805 38.2188V39.7188H218.709L215.809 37.1046L214.805 38.2188ZM208.773 32.7109H207.273V32.7858L207.281 32.8602L208.773 32.7109ZM208.773 32.6484L207.383 32.085L207.273 32.356V32.6484H208.773ZM212.617 24.6641H230.516V21.6641H212.617V24.6641ZM229.016 23.1641V23.2344H232.016V23.1641H229.016ZM229.164 22.5837L225.719 29.7399L228.422 31.0413L231.867 23.8851L229.164 22.5837ZM227.07 28.8906H219.773V31.8906H227.07V28.8906ZM218.745 31.4823L225.643 37.9823L227.701 35.7989L220.802 29.2989L218.745 31.4823ZM225.31 36.2623C224.005 39.0907 223.026 41.2194 222.372 42.6474C222.046 43.361 221.8 43.9019 221.635 44.2686C221.552 44.4511 221.488 44.5949 221.444 44.6967C221.422 44.7463 221.402 44.794 221.385 44.8342C221.378 44.8525 221.366 44.8825 221.353 44.9159C221.348 44.9308 221.336 44.9641 221.323 45.006C221.317 45.0263 221.306 45.0653 221.295 45.1148C221.289 45.1398 221.258 45.2728 221.258 45.4453H224.258C224.258 45.6171 224.227 45.749 224.222 45.7726C224.211 45.8207 224.2 45.8579 224.194 45.8761C224.183 45.9138 224.173 45.9415 224.17 45.9495C224.163 45.969 224.158 45.9796 224.161 45.9731C224.165 45.9636 224.175 45.9397 224.194 45.8958C224.231 45.8106 224.289 45.6798 224.37 45.5C224.531 45.142 224.774 44.6078 225.1 43.8956C225.752 42.472 226.729 40.3468 228.034 37.519L225.31 36.2623ZM222.757 43.9453L204.944 43.9609L204.947 46.9609L222.759 46.9453L222.757 43.9453ZM206.321 46.0577L209.462 38.8155L206.71 37.622L203.569 44.8642L206.321 46.0577ZM208.086 39.7188H214.805V36.7188H208.086V39.7188ZM215.809 37.1046C213.802 35.2952 212.298 33.9339 211.297 33.0193C210.795 32.5614 210.424 32.219 210.179 31.9897C210.055 31.8738 209.971 31.7937 209.921 31.7445C209.894 31.7179 209.889 31.7123 209.896 31.72C209.897 31.7211 209.921 31.7465 209.952 31.7854C209.966 31.8027 210.003 31.8498 210.045 31.9156C210.065 31.9485 210.102 32.0088 210.138 32.089C210.167 32.151 210.242 32.324 210.266 32.5617L207.281 32.8602C207.305 33.0987 207.381 33.2728 207.41 33.336C207.447 33.4174 207.484 33.4792 207.506 33.5137C207.549 33.583 207.59 33.6343 207.607 33.6567C207.647 33.7058 207.683 33.7449 207.7 33.7632C207.739 33.8053 207.781 33.848 207.818 33.8836C207.894 33.959 208 34.0591 208.128 34.1792C208.387 34.4219 208.77 34.7746 209.274 35.2346C210.283 36.1559 211.792 37.5225 213.8 39.3329L215.809 37.1046ZM210.273 32.7109V32.6484H207.273V32.7109H210.273ZM210.164 33.2118L214.007 23.7275L211.227 22.6007L207.383 32.085L210.164 33.2118ZM232.586 22.7656V21.2656H231.352L231.114 22.4762L232.586 22.7656ZM250.547 22.7656L251.911 23.3892L252.882 21.2656H250.547V22.7656ZM247.305 29.8594L247.328 31.3592L248.275 31.3446L248.669 30.4829L247.305 29.8594ZM242.727 29.9297L242.704 28.4299L241.227 28.4525V29.9297H242.727ZM242.727 29.9922L244.207 30.2308L244.227 30.1123V29.9922H242.727ZM240.141 46.0391L240.339 47.5259L241.444 47.3783L241.622 46.2777L240.141 46.0391ZM231.188 47.2344L229.733 46.869L229.194 49.0138L231.386 48.7212L231.188 47.2344ZM235.5 30.0625L236.955 30.4279L237.438 28.503L235.454 28.5632L235.5 30.0625ZM231.125 30.1953L229.653 29.9059L229.29 31.7517L231.171 31.6946L231.125 30.1953ZM232.586 24.2656H250.547V21.2656H232.586V24.2656ZM249.183 22.1421L245.94 29.2358L248.669 30.4829L251.911 23.3892L249.183 22.1421ZM247.282 28.3596L242.704 28.4299L242.75 31.4295L247.328 31.3592L247.282 28.3596ZM241.227 29.9297V29.9922H244.227V29.9297H241.227ZM241.246 29.7535L238.66 45.8004L241.622 46.2777L244.207 30.2308L241.246 29.7535ZM239.942 44.5523L230.989 45.7476L231.386 48.7212L240.339 47.5259L239.942 44.5523ZM232.642 47.5997L236.955 30.4279L234.045 29.6971L229.733 46.869L232.642 47.5997ZM235.454 28.5632L231.079 28.696L231.171 31.6946L235.546 31.5618L235.454 28.5632ZM232.597 30.4847L234.058 23.055L231.114 22.4762L229.653 29.9059L232.597 30.4847ZM262.43 22.9844H263.93V21.3889L262.337 21.4872L262.43 22.9844ZM262.43 46.2422L262.673 47.7223L263.93 47.5155V46.2422H262.43ZM255.07 47.4531L253.582 47.2671L253.333 49.2592L255.314 48.9332L255.07 47.4531ZM255.844 41.2656L257.332 41.4517L257.543 39.7656H255.844V41.2656ZM253.688 41.2656V39.7656H252.49L252.225 40.9338L253.688 41.2656ZM252.445 46.7422L252.24 48.228L253.604 48.4169L253.908 47.074L252.445 46.7422ZM245.789 45.8203L244.345 45.4128L243.878 47.0699L245.583 47.3061L245.789 45.8203ZM252.055 23.625L251.962 22.1279L250.9 22.1934L250.611 23.2175L252.055 23.625ZM256.391 29.4531V27.9531H255.195L254.928 29.1192L256.391 29.4531ZM254.766 36.5703L253.303 36.2364L252.742 38.6964L255.171 38.0145L254.766 36.5703ZM256.547 36.0703L256.952 37.5145L257.914 37.2445L258.036 36.2531L256.547 36.0703ZM257.359 29.4531L258.848 29.6359L259.055 27.9531H257.359V29.4531ZM260.93 22.9844V46.2422H263.93V22.9844H260.93ZM262.186 44.7621L254.827 45.973L255.314 48.9332L262.673 47.7223L262.186 44.7621ZM256.559 47.6392L257.332 41.4517L254.355 41.0796L253.582 47.2671L256.559 47.6392ZM255.844 39.7656H253.688V42.7656H255.844V39.7656ZM252.225 40.9338L250.982 46.4104L253.908 47.074L255.15 41.5974L252.225 40.9338ZM252.651 45.2564L245.995 44.3345L245.583 47.3061L252.24 48.228L252.651 45.2564ZM247.233 46.2278L253.498 24.0325L250.611 23.2175L244.345 45.4128L247.233 46.2278ZM252.147 25.1221L262.522 24.4815L262.337 21.4872L251.962 22.1279L252.147 25.1221ZM254.928 29.1192L253.303 36.2364L256.228 36.9042L257.853 29.787L254.928 29.1192ZM255.171 38.0145L256.952 37.5145L256.141 34.6261L254.36 35.1261L255.171 38.0145ZM258.036 36.2531L258.848 29.6359L255.871 29.2703L255.058 35.8875L258.036 36.2531ZM257.359 27.9531H256.391V30.9531H257.359V27.9531ZM284.055 23.2891L285.525 23.5852L285.885 21.7969L284.061 21.7891L284.055 23.2891ZM281.805 34.4609V35.9609H283.033L283.275 34.7571L281.805 34.4609ZM279.695 34.4609V32.9609H277.33L278.339 35.1005L279.695 34.4609ZM284.586 44.8359L284.825 46.3168L286.793 45.9996L285.943 44.1964L284.586 44.8359ZM276.781 46.0938L275.35 46.542L275.738 47.7813L277.02 47.5746L276.781 46.0938ZM274.07 37.4375L275.502 36.9892L275.172 35.9375H274.07V37.4375ZM274.008 37.4375V35.9375H272.706L272.523 37.2268L274.008 37.4375ZM272.883 45.3672L273.124 46.8477L274.213 46.6706L274.368 45.5779L272.883 45.3672ZM263.5 46.8828L262.046 46.5131L261.571 48.3828H263.5V46.8828ZM269.516 23.2266L269.522 21.7266L268.351 21.7215L268.062 22.8569L269.516 23.2266ZM275.266 28.1797L275.535 26.7041L274.014 26.426L273.783 27.9553L275.266 28.1797ZM274.805 31.2266L273.322 31.0022L273.035 32.8936L274.94 32.7204L274.805 31.2266ZM275.75 31.1406L275.886 32.6345L277.137 32.5207L277.245 31.2686L275.75 31.1406ZM275.992 28.3125L277.487 28.4405L277.603 27.0821L276.262 26.8369L275.992 28.3125ZM282.584 22.9929L280.334 34.1648L283.275 34.7571L285.525 23.5852L282.584 22.9929ZM281.805 32.9609H279.695V35.9609H281.805V32.9609ZM278.339 35.1005L283.229 45.4755L285.943 44.1964L281.052 33.8214L278.339 35.1005ZM284.347 43.355L276.543 44.6129L277.02 47.5746L284.825 46.3168L284.347 43.355ZM278.213 45.6455L275.502 36.9892L272.639 37.8858L275.35 46.542L278.213 45.6455ZM274.07 35.9375H274.008V38.9375H274.07V35.9375ZM272.523 37.2268L271.398 45.1565L274.368 45.5779L275.493 37.6482L272.523 37.2268ZM272.642 43.8866C269.535 44.3918 267.201 44.7706 265.638 45.0231C264.856 45.1494 264.268 45.2439 263.874 45.3068C263.676 45.3383 263.529 45.3616 263.43 45.3769C263.38 45.3846 263.346 45.3899 263.325 45.393C263.313 45.3947 263.311 45.395 263.313 45.3947C263.313 45.3947 263.322 45.3936 263.334 45.3921C263.34 45.3915 263.353 45.39 263.37 45.3885C263.375 45.388 263.43 45.3828 263.5 45.3828V48.3828C263.57 48.3828 263.627 48.3775 263.633 48.377C263.652 48.3753 263.667 48.3736 263.675 48.3727C263.691 48.3708 263.705 48.369 263.713 48.3679C263.73 48.3656 263.748 48.3631 263.763 48.3608C263.796 48.356 263.839 48.3494 263.891 48.3414C263.995 48.3251 264.147 48.301 264.346 48.2694C264.744 48.206 265.334 48.1111 266.116 47.9847C267.681 47.732 270.017 47.353 273.124 46.8477L272.642 43.8866ZM264.954 47.2525L270.969 23.5962L268.062 22.8569L262.046 46.5131L264.954 47.2525ZM269.509 24.7265L284.048 24.789L284.061 21.7891L269.522 21.7266L269.509 24.7265ZM273.783 27.9553L273.322 31.0022L276.288 31.4509L276.749 28.4041L273.783 27.9553ZM274.94 32.7204L275.886 32.6345L275.614 29.6468L274.669 29.7327L274.94 32.7204ZM277.245 31.2686L277.487 28.4405L274.498 28.1845L274.255 31.0126L277.245 31.2686ZM276.262 26.8369L275.535 26.7041L274.996 29.6552L275.722 29.7881L276.262 26.8369ZM287.43 22.7656V21.2656H286.196L285.958 22.4762L287.43 22.7656ZM305.391 22.7656L306.755 23.3892L307.725 21.2656H305.391V22.7656ZM302.148 29.8594L302.171 31.3592L303.119 31.3446L303.513 30.4829L302.148 29.8594ZM297.57 29.9297L297.547 28.4299L296.07 28.4525V29.9297H297.57ZM297.57 29.9922L299.051 30.2308L299.07 30.1123V29.9922H297.57ZM294.984 46.0391L295.183 47.5259L296.288 47.3783L296.465 46.2777L294.984 46.0391ZM286.031 47.2344L284.576 46.869L284.038 49.0138L286.23 48.7212L286.031 47.2344ZM290.344 30.0625L291.799 30.4279L292.282 28.503L290.298 28.5632L290.344 30.0625ZM285.969 30.1953L284.497 29.9059L284.134 31.7517L286.014 31.6946L285.969 30.1953ZM287.43 24.2656H305.391V21.2656H287.43V24.2656ZM304.026 22.1421L300.784 29.2358L303.513 30.4829L306.755 23.3892L304.026 22.1421ZM302.125 28.3596L297.547 28.4299L297.593 31.4295L302.171 31.3592L302.125 28.3596ZM296.07 29.9297V29.9922H299.07V29.9297H296.07ZM296.089 29.7535L293.503 45.8004L296.465 46.2777L299.051 30.2308L296.089 29.7535ZM294.786 44.5523L285.833 45.7476L286.23 48.7212L295.183 47.5259L294.786 44.5523ZM287.486 47.5997L291.799 30.4279L288.889 29.6971L284.576 46.869L287.486 47.5997ZM290.298 28.5632L285.923 28.696L286.014 31.6946L290.389 31.5618L290.298 28.5632ZM287.441 30.4847L288.902 23.055L285.958 22.4762L284.497 29.9059L287.441 30.4847ZM319.312 23.4297H320.812V21.9297H319.312V23.4297ZM319.312 28.4766L319.587 29.9513L320.812 29.7234V28.4766H319.312ZM311.539 29.9219L311.265 28.4471L310.266 28.6329L310.068 29.6293L311.539 29.9219ZM311.266 31.2969L309.794 31.0043L309.438 32.7969H311.266V31.2969ZM315.805 31.2969L317.259 31.6627L317.729 29.7969H315.805V31.2969ZM314.5 36.4844L314.837 37.9459L315.731 37.7396L315.955 36.8502L314.5 36.4844ZM310.102 37.5L309.764 36.0385L308.8 36.2612L308.625 37.2356L310.102 37.5ZM309.688 39.8125L308.211 39.5481L307.895 41.3125H309.688V39.8125ZM309.75 39.8125V41.3125H309.873L309.994 41.2925L309.75 39.8125ZM317.664 38.5078H319.164V36.7403L317.42 37.0278L317.664 38.5078ZM317.664 44.2812L317.771 45.7774L319.164 45.6778V44.2812H317.664ZM301.5 45.4375L300.044 45.0782L299.55 47.0809L301.607 46.9337L301.5 45.4375ZM306.93 23.4297V21.9297H305.755L305.473 23.0704L306.93 23.4297ZM317.812 23.4297V28.4766H320.812V23.4297H317.812ZM319.038 27.0018L311.265 28.4471L311.813 31.3966L319.587 29.9513L319.038 27.0018ZM310.068 29.6293L309.794 31.0043L312.737 31.5894L313.01 30.2144L310.068 29.6293ZM311.266 32.7969H315.805V29.7969H311.266V32.7969ZM314.35 30.931L313.045 36.1185L315.955 36.8502L317.259 31.6627L314.35 30.931ZM314.163 35.0228L309.764 36.0385L310.439 38.9615L314.837 37.9459L314.163 35.0228ZM308.625 37.2356L308.211 39.5481L311.164 40.0769L311.578 37.7644L308.625 37.2356ZM309.688 41.3125H309.75V38.3125H309.688V41.3125ZM309.994 41.2925L317.908 39.9878L317.42 37.0278L309.506 38.3325L309.994 41.2925ZM316.164 38.5078V44.2812H319.164V38.5078H316.164ZM317.557 42.7851L301.393 43.9413L301.607 46.9337L317.771 45.7774L317.557 42.7851ZM302.956 45.7968L308.386 23.789L305.473 23.0704L300.044 45.0782L302.956 45.7968ZM306.93 24.9297H319.312V21.9297H306.93V24.9297ZM323.219 23.2578L323.251 21.7582L321.982 21.7309L321.745 22.9778L323.219 23.2578ZM333.75 23.4844L334.864 22.4803L334.43 21.9987L333.782 21.9847L333.75 23.4844ZM335.812 25.7734L337.309 25.8813L337.355 25.244L336.927 24.7694L335.812 25.7734ZM334.586 42.7891L335.491 43.9854L336.033 43.5751L336.082 42.8969L334.586 42.7891ZM332.758 44.1719L332.97 45.6568L333.354 45.602L333.663 45.3682L332.758 44.1719ZM318.867 46.1562L317.394 45.8762L317.002 47.938L319.079 47.6412L318.867 46.1562ZM328.719 29.8906L329.394 28.5513L327.51 27.6009L327.232 29.6933L328.719 29.8906ZM327.562 38.6016L326.076 38.4042L325.687 41.3312L328.28 39.9188L327.562 38.6016ZM329.398 37.6016L330.116 38.9188L330.87 38.5082L330.898 37.65L329.398 37.6016ZM329.633 30.3516L331.132 30.4L331.163 29.4432L330.308 29.0122L329.633 30.3516ZM323.186 24.7575L333.718 24.984L333.782 21.9847L323.251 21.7582L323.186 24.7575ZM332.636 24.4885L334.698 26.7775L336.927 24.7694L334.864 22.4803L332.636 24.4885ZM334.316 25.6656L333.09 42.6812L336.082 42.8969L337.309 25.8813L334.316 25.6656ZM333.681 41.5928L331.853 42.9756L333.663 45.3682L335.491 43.9854L333.681 41.5928ZM332.546 42.687L318.655 44.6713L319.079 47.6412L332.97 45.6568L332.546 42.687ZM320.341 46.4363L324.692 23.5379L321.745 22.9778L317.394 45.8762L320.341 46.4363ZM327.232 29.6933L326.076 38.4042L329.049 38.7989L330.206 30.088L327.232 29.6933ZM328.28 39.9188L330.116 38.9188L328.681 36.2843L326.845 37.2843L328.28 39.9188ZM330.898 37.65L331.132 30.4L328.134 30.3031L327.899 37.5531L330.898 37.65ZM330.308 29.0122L329.394 28.5513L328.043 31.23L328.957 31.6909L330.308 29.0122Z" fill="black" mask="url(#path-2-outside-1_414_375)"/>
</svg>
