<svg width="129" height="157" viewBox="0 0 129 157" fill="none" xmlns="http://www.w3.org/2000/svg">
<path d="M125.72 145.075C125.72 145.075 125.72 148.619 125.72 153.13H64.5001H3.27979C3.27979 148.619 3.27979 145.075 3.27979 145.075C3.27979 145.075 3.4405 135.119 16.3942 126.064C20.3576 123.261 25.5449 120.554 32.279 118.234C32.7947 118.041 33.3424 117.848 33.89 117.686C33.89 117.686 36.4996 116.333 39.593 114.464C42.8149 112.531 46.5852 110.018 48.3896 108.02C48.3896 108.02 55.0272 116.075 64.5001 116.075C73.9731 116.075 80.6107 108.02 80.6107 108.02C82.4797 110.083 86.4103 112.66 89.6972 114.658C92.6614 116.43 95.1103 117.687 95.1103 117.687C95.6583 117.847 96.2055 118.041 96.7213 118.235C103.488 120.522 108.675 123.229 112.638 126C125.656 135.054 125.72 145.075 125.72 145.075Z" fill="#FFD248"/>
<path d="M48.3895 108.02V97.7739C53.0939 100.223 58.507 101.576 64.5001 101.576C70.4931 101.576 75.9063 100.223 80.6106 97.7739V108.02C80.6106 108.02 73.9731 116.075 64.5001 116.075C55.0271 116.075 48.3895 108.02 48.3895 108.02Z" fill="#FFD7A3"/>
<path d="M48.3896 97.7743C36.3389 91.5555 29.0572 78.2804 29.0572 62.9113V45.1894C29.0572 45.1894 62.8892 43.5785 62.8892 33.9116C62.8892 33.9116 78.8063 45.1894 99.9435 45.1894V62.9109C99.9435 78.2804 92.6614 91.5555 80.6107 97.7739C75.9063 100.223 70.4932 101.576 64.5002 101.576C58.5071 101.576 53.094 100.223 48.3896 97.7743Z" fill="#FFE1B2"/>
<path d="M112.832 37.3269C112.832 75.9921 112.832 125.71 112.832 125.71L112.639 126C108.675 123.229 103.488 120.522 96.7214 118.234C96.2057 118.041 95.6581 117.848 95.1105 117.686C95.1105 117.686 92.6616 116.429 89.6973 114.657C86.4109 112.66 82.4799 110.082 80.6109 108.02V97.7734C92.6616 91.5546 99.9437 78.2795 99.9437 62.9104V45.1889C78.8065 45.1889 62.8894 33.9111 62.8894 33.9111C62.8894 43.5775 29.0573 45.1889 29.0573 45.1889V62.9104C29.0573 78.2799 36.3395 91.555 48.3897 97.7734V108.02C46.5854 110.017 42.8155 112.531 39.5932 114.464C36.4998 116.333 33.8901 117.686 33.8901 117.686C33.3421 117.846 32.7949 118.04 32.2792 118.234C25.5451 120.553 20.3573 123.26 16.3944 126.064L16.1686 125.709C16.1686 125.709 16.1686 75.7987 16.1686 37.1334C16.1686 -1.53185 64.5003 3.49481 64.5003 3.49481C64.5003 3.49481 112.832 -1.3384 112.832 37.3269Z" fill="#8C6239"/>
<path d="M48.3896 108.009C46.5852 110.006 42.8153 112.52 39.593 114.453C36.4996 116.322 33.89 117.675 33.89 117.675C33.3419 117.836 32.7947 118.029 32.279 118.223C25.5449 120.543 20.3571 123.25 16.3942 126.053C3.44133 135.107 3.27979 145.063 3.27979 145.063C3.27979 145.063 3.27979 148.607 3.27979 153.118H64.5001V116.064C55.0272 116.064 48.3896 108.009 48.3896 108.009Z" fill="#FDC147"/>
<path d="M48.3895 97.7627V108.009C48.3895 108.009 55.0271 116.064 64.5001 116.064V101.564C58.507 101.564 53.0939 100.212 48.3895 97.7627Z" fill="#FFD7A3"/>
<path d="M64.5002 34.9426C63.4497 34.2976 62.8892 33.9004 62.8892 33.9004C62.8892 43.5668 29.0572 45.1777 29.0572 45.1777V62.8992C29.0572 78.2691 36.3393 91.5439 48.3896 97.7623C53.094 100.211 58.5071 101.564 64.5002 101.564V34.9426Z" fill="#FFE1B2"/>
<path d="M33.8901 117.675C33.8901 117.675 36.4998 116.322 39.5932 114.453C42.8151 112.52 46.585 110.007 48.3897 108.009V97.7632C36.339 91.5444 29.0573 78.2692 29.0573 62.9001V45.1787C29.0573 45.1787 62.8894 43.5677 62.8894 33.9013C62.8894 33.9013 63.4502 34.2986 64.5003 34.9435V3.48333C64.5003 3.48333 16.1686 -1.54332 16.1686 37.1219C16.1686 75.7872 16.1686 125.698 16.1686 125.698L16.3944 126.052C20.3577 123.249 25.5451 120.542 32.2792 118.222C32.7949 118.03 33.3421 117.837 33.8901 117.675Z" fill="#6C4C29"/>
<path d="M116.112 124.476V37.3269C116.112 26.4447 112.545 17.6987 105.511 11.3333C99.1599 5.58589 90.249 1.97341 79.0243 0.596106C71.767 -0.294069 65.9446 0.0832924 64.5068 0.202176C63.0695 0.0779074 57.2463 -0.323893 49.9861 0.538943C38.7568 1.87276 29.843 5.45168 23.4896 11.1788C16.4552 17.5194 12.8887 26.2525 12.8887 37.1343V124.571C0.33221 134.161 0.0078701 144.567 0.000414 145.022L0 156.41H129V145.054C128.997 144.594 128.772 134.087 116.112 124.476ZM27.8643 16.0663C40.6664 4.50517 64.494 6.79171 64.494 6.79171C64.494 6.79171 88.257 4.56524 101.109 16.1967C106.711 21.2665 109.552 28.3763 109.552 37.3269V120.245C106.042 118.313 102.123 116.601 97.8223 115.145C97.2785 114.941 96.8029 114.777 96.3551 114.637C95.6704 114.278 93.678 113.217 91.401 111.856C87.3221 109.376 85.1022 107.721 83.8906 106.645V99.6996C95.8643 92.6176 103.223 78.7256 103.223 62.9117V41.9103H99.9436C80.1692 41.9103 64.9331 31.3401 64.7852 31.2361L59.6094 27.5689V33.9124C59.6094 34.8349 57.0594 37.7184 45.4159 39.9436C37.2797 41.499 28.9831 41.9099 28.8998 41.9145L25.7766 42.064V62.9121C25.7766 78.7265 33.1353 92.6184 45.1094 99.7001V106.65C43.6037 107.99 41.0649 109.758 37.8969 111.659C35.4873 113.114 33.3577 114.259 32.6386 114.641C32.1905 114.781 31.7141 114.946 31.169 115.149C26.849 116.64 22.9271 118.365 19.448 120.295V37.1339C19.4484 28.1969 22.2796 21.1082 27.8643 16.0663ZM79.0963 94.8652C74.7221 97.1418 69.8114 98.2966 64.5002 98.2966C59.189 98.2966 54.2783 97.1418 49.9041 94.8652L49.8941 94.8594C39.0641 89.271 32.3371 77.029 32.3371 62.9104V48.2551C35.6261 47.9937 41.0748 47.4461 46.5873 46.396C55.811 44.6389 61.7166 42.1108 64.4298 38.7316C70.0057 41.9286 81.8692 47.6246 96.6646 48.3835V62.91C96.6641 77.0294 89.9363 89.271 79.0963 94.8652ZM51.6695 102.748C55.6834 104.146 59.9789 104.856 64.5002 104.856C69.0232 104.856 73.3199 104.146 77.3309 102.749V106.732C75.5236 108.546 70.6341 112.796 64.5002 112.796C58.3622 112.796 53.4706 108.54 51.6695 106.733V102.748ZM122.441 149.85H6.55971V145.118C6.57711 144.78 7.18602 136.503 18.2877 128.742C22.3455 125.872 27.4123 123.38 33.3474 121.335L35.3995 120.598C35.5101 120.541 38.1408 119.174 41.2803 117.277C43.4454 115.978 46.1102 114.27 48.2708 112.549C51.3402 115.293 57.1282 119.355 64.4998 119.355C71.8739 119.355 77.6635 115.291 80.7313 112.547C82.527 113.974 84.937 115.603 88.0134 117.473C91.0344 119.279 93.5086 120.551 93.6125 120.604L95.6704 121.341C101.557 123.332 106.634 125.803 110.766 128.693C121.898 136.436 122.418 144.572 122.44 145.118V149.85H122.441V149.85Z" fill="#231F20"/>
<path d="M67.78 69.323H61.2203V82.3007H70.9439V75.7415H67.78V69.323Z" fill="#231F20"/>
<path d="M67.7757 125.185H61.2164V144.863H67.7757V125.185Z" fill="white"/>
</svg>
