<svg width="131" height="158" viewBox="0 0 131 158" fill="none" xmlns="http://www.w3.org/2000/svg">
<path d="M127.67 145.666C127.67 145.666 127.67 149.265 127.67 153.846H65.5005H3.33099C3.33099 149.265 3.33099 145.666 3.33099 145.666C3.33099 145.666 3.62545 127.767 34.4157 117.853C34.4157 117.853 45.5735 112.028 49.1402 108.069C49.7291 108.723 56.3059 116.216 65.5005 116.216C75.1203 116.216 81.8608 108.036 81.8608 108.036C85.4275 112.028 96.5853 117.852 96.5853 117.852C127.572 127.669 127.67 145.666 127.67 145.666Z" fill="#FFD248"/>
<path d="M29.9321 68.6744C29.67 66.58 29.5068 64.4208 29.5068 62.2284V44.2322C29.5068 44.2322 63.7982 42.5963 63.8634 32.8124C63.8634 32.8124 80.0273 44.2322 101.492 44.2322V62.2284C101.492 64.4208 101.329 66.5805 101.067 68.6744V68.7073C99.2998 81.5013 92.3633 92.2006 81.8596 97.6324C81.7944 97.6976 81.696 97.7304 81.6304 97.7632C76.9183 100.152 71.4868 101.494 65.4993 101.494C59.5114 101.494 54.0795 100.152 49.3682 97.7632C49.303 97.7304 49.205 97.698 49.139 97.6324C38.6354 92.2006 31.6988 81.5013 29.9317 68.7073L29.9321 68.6744Z" fill="#FFE1B2"/>
<path d="M49.1398 108.037V97.632C49.205 97.6972 49.303 97.73 49.369 97.7628C54.0807 100.151 59.5126 101.493 65.5001 101.493C71.488 101.493 76.9199 100.152 81.6312 97.7628C81.6964 97.73 81.7948 97.6976 81.8604 97.632V108.037C81.8604 108.037 75.1199 116.218 65.5001 116.218C56.3055 116.218 49.7287 108.724 49.1398 108.07V108.037Z" fill="#FFD7A3"/>
<path d="M65.5005 3.33105C103.129 3.33105 101.493 44.2317 101.493 44.2317C80.0285 44.2317 63.8646 32.8119 63.8646 32.8119C63.7994 42.5958 29.508 44.2317 29.508 44.2317C29.508 44.2317 27.8065 3.33105 65.5005 3.33105Z" fill="#A97C50"/>
<path d="M49.1402 108.07C45.5735 112.029 34.4157 117.853 34.4157 117.853C3.62545 127.768 3.33099 145.666 3.33099 145.666C3.33099 145.666 3.33099 149.265 3.33099 153.846H65.5005V116.217C56.3059 116.218 49.7291 108.724 49.1402 108.07Z" fill="#FDC147"/>
<path d="M29.5071 44.2317C29.5071 44.2317 63.7985 42.5958 63.8637 32.8119C63.8637 32.8119 64.4332 33.214 65.4996 33.8673V3.33105C27.806 3.33105 29.5071 44.2317 29.5071 44.2317Z" fill="#8A6640"/>
<path d="M97.8734 114.768C94.1519 112.808 88.0399 109.197 85.1904 106.65V99.5888C95.5788 93.4595 102.526 82.4903 104.367 69.1624L104.398 68.9029V68.8784C104.684 66.5312 104.823 64.3535 104.823 62.2276C104.823 62.2276 104.847 43.3913 104.823 42.3918V40.9006H104.765C104.426 34.4756 102.552 20.5294 93.0456 10.6357C86.2647 3.57847 76.997 0 65.5002 0C53.9731 0 44.689 3.5852 37.9052 10.6567C28.3392 20.6291 26.5312 34.7023 26.222 41.055L26.1762 41.0571V42.2925C26.151 43.3374 26.1762 62.228 26.1762 62.228C26.1762 64.3531 26.315 66.5308 26.6015 68.8789L26.6326 69.1628C28.4734 82.4903 35.4208 93.4595 45.8088 99.5888V106.681C42.6867 109.466 35.963 113.27 33.1182 114.772C0.704166 125.317 0.0134608 144.786 0 145.611V157.177H131V145.648C130.995 144.817 130.513 125.22 97.8734 114.768ZM49.1765 108.037L49.1584 108.054H49.1218L49.1037 108.037H49.1765ZM52.4706 102.686C56.5568 104.104 60.9193 104.823 65.5002 104.823C70.0844 104.823 74.45 104.102 78.5298 102.687V106.739C76.7126 108.58 71.7893 112.887 65.5002 112.887C59.4286 112.887 54.4981 108.74 52.4706 106.737V102.686ZM42.7401 15.2397C48.2161 9.54749 55.8736 6.66141 65.5002 6.66141C75.0982 6.66141 82.7405 9.5416 88.2149 15.2225C95.9691 23.2691 97.6997 35.099 98.0728 40.795C79.6799 39.6997 65.9276 30.1917 65.7858 30.0916L60.5769 26.4118L60.534 32.7901C60.5277 33.726 57.9222 36.6508 46.0969 38.9076C41.1581 39.8503 36.1658 40.3778 32.9322 40.6512C33.3155 34.9059 35.0641 23.2178 42.7401 15.2397ZM33.2633 68.4734L33.2376 68.2605C32.968 66.1102 32.838 64.1369 32.838 62.228V47.3454C36.1729 47.08 41.694 46.5251 47.2836 45.4621C56.6485 43.6811 62.649 41.1185 65.4136 37.6932C71.0671 40.9275 83.1225 46.7068 98.1628 47.4762V62.2276C98.1628 64.1365 98.0324 66.1102 97.7632 68.2601L97.7489 68.3922C96.0739 80.2389 89.7305 89.8121 80.3306 94.6731L79.8713 94.9108L79.8545 94.9276C75.5129 97.0742 70.6856 98.1624 65.5002 98.1624C60.3245 98.1624 55.5043 97.0784 51.1464 94.9272L50.6702 94.6731C41.2914 89.8239 34.9564 80.2831 33.2633 68.4734ZM124.339 150.516H6.66141V145.731C6.71357 144.75 7.96458 129.87 35.4364 121.023L35.9567 120.806C36.9427 120.292 44.3142 116.399 49.0372 112.65C52.3006 115.55 58.1372 119.549 65.5002 119.549C72.9831 119.549 78.8592 115.427 81.9766 112.641C86.7035 116.407 94.059 120.292 95.0437 120.806L95.5792 121.029C123.332 129.821 124.307 144.853 124.339 145.708V150.516H124.339Z" fill="#231F20"/>
<path d="M72.0437 68.7136H68.8308V58.9558H62.1694V75.3746H72.0437V68.7136Z" fill="#231F20"/>
</svg>
