<svg width="153" height="68" viewBox="0 0 153 68" fill="none" xmlns="http://www.w3.org/2000/svg">
<path d="M55.9098 38.8553C55.9098 40.3075 54.629 41.1607 52.4954 41.1607C49.8364 41.0764 47.2945 40.0471 45.3253 38.2575L45.2395 38.3434V38.2575C43.3623 39.9651 41.6545 41.0759 38.9234 41.0759C34.8267 41.0759 32.0098 37.6597 32.0098 33.5609V33.4751C32.0098 29.3763 34.9114 26.046 38.9234 26.046C40.4766 26.0662 41.9899 26.5412 43.2764 27.4122C43.2022 27.7772 43.1733 28.1499 43.1906 28.5219V28.6078C43.1906 33.3903 46.2628 34.6707 51.1287 35.9533C55.1372 36.8913 55.9098 37.5738 55.9098 38.8553ZM67.7695 0V67.8045H0V0H67.7695ZM61.1122 38.4282C61.1122 34.2469 58.3811 32.536 53.5164 31.2545C49.4197 30.2295 48.3953 29.7176 48.3953 28.0903V28.0044C48.3953 26.8088 49.4198 25.9544 51.4675 25.9544C53.738 26.1036 55.9101 26.9372 57.6978 28.3457L60.4278 24.4232C57.9168 22.3959 54.7774 21.3088 51.5511 21.3494C49.5342 21.255 47.546 21.8566 45.9194 23.0535C43.7938 21.8242 41.3711 21.2037 38.9166 21.2601C35.8839 21.2069 32.9374 22.2707 30.6374 24.2491V21.6906H25.4305V36.3816L14.3445 21.6048H9.47417V45.516H14.6834V30.3154L26.2889 45.516H30.7222V43.04C32.9529 44.9523 35.8043 45.9846 38.7415 45.9432C41.1059 46.0279 43.4452 45.4355 45.4846 44.2356C47.6289 45.3246 50.0038 45.8808 52.4084 45.8573C57.5295 45.8573 61.1992 43.2095 61.1145 38.4282H61.1122ZM79.8042 1.19562H77.4142V66.6088H79.8042V1.19562ZM89.9606 4.18128H88.1681V17.6744H89.9606V8.88126L91.9236 15.03V17.6778H93.7161V4.18128H91.9236V10.6747L89.9606 4.18128ZM98.5808 17.6744V4.18128H96.7895V17.6744H98.5808ZM105.836 10.6679C106.194 10.6355 106.526 10.4669 106.764 10.1968C107.002 9.92669 107.128 9.57562 107.115 9.21576V6.66066C107.115 5.03787 106.347 4.18467 104.725 4.18467H101.654V17.6778H105.324C105.559 17.7119 105.799 17.6992 106.03 17.6404C106.26 17.5816 106.477 17.4778 106.667 17.335C106.858 17.1923 107.018 17.0133 107.139 16.8083C107.26 16.6034 107.34 16.3766 107.373 16.1409V12.2116C107.373 11.4431 106.861 10.9301 105.921 10.6747H105.833L105.836 10.6679ZM103.447 5.80745H104.556C105.068 5.80745 105.324 6.14647 105.324 6.74654V8.88126C105.324 9.5593 104.985 9.82035 104.299 9.82035H103.446L103.447 5.80745ZM103.447 11.529H104.471C105.149 11.529 105.58 11.868 105.58 12.4681V15.4572C105.58 15.8843 105.324 16.055 104.903 16.055H103.531V11.5268L103.447 11.529ZM114.457 10.6747C114.816 10.6425 115.148 10.474 115.387 10.2039C115.625 9.9338 115.751 9.58258 115.738 9.22254V6.66066C115.738 5.03787 114.97 4.18467 113.348 4.18467H110.276V17.6778H113.945C114.181 17.7119 114.421 17.6992 114.651 17.6404C114.882 17.5816 115.098 17.4778 115.289 17.335C115.479 17.1923 115.639 17.0133 115.761 16.8083C115.882 16.6034 115.961 16.3766 115.994 16.1409V12.2116C115.994 11.4431 115.483 10.9301 114.543 10.6747H114.457ZM112.067 5.89221H113.176C113.688 5.89221 113.944 6.23123 113.944 6.8313V8.96714C113.944 9.64518 113.605 9.90623 112.92 9.90623H112.066L112.067 5.89221ZM112.067 11.5279H113.091C113.769 11.5279 114.201 11.8669 114.201 12.467V15.456C114.201 15.8832 113.944 16.0538 113.523 16.0538H112.153V11.5268L112.067 11.5279ZM123.163 16.0538H120.688V4.18128H118.896V17.6744H123.163V16.0538ZM130.077 17.6766V16.055H127.43V11.5268H129.734V9.90623H127.344V5.80745H129.991V4.18128H125.553V17.6744L130.077 17.6766ZM91.7531 37.0664V37.8349C91.7531 38.3468 91.4967 38.6033 91.0754 38.6033H90.6484C90.1368 38.6033 89.9707 38.3468 89.9707 37.8349V29.2056C89.9707 28.6937 90.2271 28.4372 90.6484 28.4372H90.9873C91.0785 28.4102 91.1748 28.4053 91.2683 28.423C91.3617 28.4406 91.4497 28.4803 91.5247 28.5388C91.5998 28.5972 91.6599 28.6727 91.7 28.759C91.7401 28.8453 91.7591 28.9399 91.7553 29.035V30.5719H93.5478V29.035C93.5478 27.4981 92.8701 26.7297 91.4142 26.7297H90.217C88.7656 26.7297 88.0834 27.4981 88.0834 29.035V37.9163C88.0834 39.4532 88.761 40.2216 90.217 40.2216H91.3261C92.7775 40.2216 93.4597 39.4532 93.4597 37.9163V37.0664H91.7531ZM100.118 40.2306C100.426 40.2662 100.737 40.2304 101.029 40.1258C101.32 40.0212 101.583 39.8507 101.798 39.6276C102.013 39.4045 102.173 39.1348 102.267 38.8396C102.36 38.5443 102.385 38.2314 102.338 37.9253V29.035C102.338 27.4981 101.66 26.7297 100.204 26.7297H98.4916C97.0402 26.7297 96.358 27.4981 96.358 29.035V37.9163C96.358 39.4532 97.0357 40.2216 98.5774 40.2216L100.118 40.2306ZM98.0692 37.8394V29.2056C98.0565 29.1157 98.0621 29.0242 98.0855 28.9364C98.1089 28.8487 98.1496 28.7666 98.2054 28.6949C98.2611 28.6232 98.3307 28.5635 98.4099 28.5192C98.4891 28.4749 98.5765 28.4471 98.6667 28.4372H99.6911C99.7823 28.4102 99.8787 28.4053 99.9721 28.423C100.066 28.4406 100.154 28.4803 100.229 28.5388C100.304 28.5972 100.364 28.6727 100.404 28.759C100.444 28.8453 100.463 28.9399 100.459 29.035V37.8304C100.459 38.3423 100.203 38.5988 99.7815 38.5988H98.8429C98.7472 38.6206 98.648 38.622 98.5517 38.6031C98.4553 38.5843 98.364 38.5454 98.2836 38.4891C98.2032 38.4328 98.1354 38.3603 98.0847 38.2762C98.034 38.1922 98.0014 38.0984 97.989 38.001C98.0748 38.001 98.0748 37.9151 98.0748 37.8304L98.0692 37.8394ZM107.287 26.7376H105.324V40.2306H107.116L106.946 31.4353L108.311 37.8405H109.674L110.954 31.4353L110.784 40.2306H112.576V26.7285H110.617L108.909 34.6707L107.287 26.7376ZM115.737 40.2306H117.529V35.3544H119.065C120.517 35.3544 121.199 34.5859 121.199 33.049V29.035C121.199 27.4981 120.521 26.7297 118.979 26.7297H115.651L115.737 40.2306ZM117.529 28.3649H118.554C118.645 28.3379 118.741 28.333 118.835 28.3507C118.928 28.3683 119.016 28.408 119.091 28.4664C119.166 28.5249 119.226 28.6004 119.266 28.6867C119.306 28.773 119.325 28.8676 119.322 28.9627V32.8908C119.322 33.4027 119.065 33.6593 118.644 33.6593H117.535V28.3513L117.529 28.3649ZM128.028 26.7421V37.6733C128.028 38.2711 127.771 38.5276 127.26 38.5276H126.492C125.98 38.5276 125.724 38.2711 125.724 37.6733V26.7285H123.931V37.6597C123.931 39.3673 124.609 40.2216 126.065 40.2216H127.601C129.052 40.2216 129.82 39.3673 129.82 37.6597V26.7285L128.028 26.7421ZM137.502 28.3649V26.7285H132.295V28.3513H134.002V40.2171H135.794V28.3513L137.502 28.3649ZM144.416 40.2306V38.5988H141.769V34.1588H144.159V32.4501H141.769V28.3513H144.416V26.7285H139.978V40.2216L144.416 40.2306ZM147.147 40.2306H148.939V34.7566H150.048L151.243 40.2216H152.95L151.67 34.5803C152.438 34.2413 152.779 33.5553 152.779 32.3597V29.035C152.779 27.4981 152.096 26.7297 150.731 26.7297H147.229L147.147 40.2306ZM148.939 28.3649H150.134C150.646 28.3649 150.902 28.7039 150.902 29.304V32.2071C150.902 32.8852 150.646 33.1462 150.134 33.1462H148.939V28.3649ZM93.375 52.9451V51.5788C93.375 50.042 92.6973 49.2735 91.2414 49.2735H90.1334C88.682 49.2735 87.9998 50.042 87.9998 51.5788V54.3114C87.9859 54.5988 88.0149 54.8868 88.0856 55.1657C88.1714 55.3364 88.2562 55.5929 88.4245 55.6776C88.6975 55.867 88.9827 56.038 89.2784 56.1896L90.985 57.1287C91.1556 57.2145 91.3239 57.3852 91.4967 57.4677C91.5912 57.6233 91.6495 57.7983 91.6672 57.9796V60.285C91.6672 60.7969 91.4108 61.0534 90.9895 61.0534H90.6507C90.5595 61.0804 90.4632 61.0853 90.3697 61.0676C90.2762 61.0499 90.1883 61.0103 90.1132 60.9518C90.0382 60.8934 89.9781 60.8179 89.938 60.7316C89.8979 60.6453 89.8789 60.5507 89.8826 60.4556V59.521H87.9128V60.1991C87.9128 61.8218 88.5905 62.6751 90.0464 62.6751H91.1556C91.4631 62.7107 91.7747 62.6748 92.0661 62.5702C92.3575 62.4656 92.6208 62.2951 92.8356 62.072C93.0504 61.8489 93.2108 61.5792 93.3043 61.284C93.3979 60.9887 93.4221 60.6758 93.375 60.3697V57.5569C93.4092 57.234 93.35 56.9081 93.2045 56.6179C93.1131 56.4596 92.9989 56.3157 92.8656 56.1907L92.0976 55.6788L90.3909 54.7397C90.2203 54.6538 90.0521 54.4831 89.8792 54.4007C89.7847 54.245 89.7264 54.07 89.7087 53.8887V51.6647C89.7087 51.1528 89.9651 50.8104 90.4767 50.8104H90.7331C90.8238 50.7915 90.9174 50.7925 91.0076 50.8134C91.0978 50.8343 91.1824 50.8746 91.2555 50.9315C91.3285 50.9883 91.3884 51.0604 91.4308 51.1428C91.4732 51.2251 91.4972 51.3157 91.5012 51.4082V52.9451H93.375ZM100.032 62.8513C100.34 62.887 100.651 62.8511 100.943 62.7465C101.234 62.6419 101.497 62.4714 101.712 62.2483C101.927 62.0252 102.087 61.7555 102.181 61.4603C102.275 61.165 102.299 60.8521 102.252 60.546V51.5788C102.252 50.042 101.574 49.2735 100.118 49.2735H98.4103C96.9589 49.2735 96.2767 50.042 96.2767 51.5788V60.459C96.2296 60.7651 96.2538 61.078 96.3474 61.3733C96.4409 61.6685 96.6013 61.9382 96.8161 62.1613C97.0309 62.3844 97.2942 62.5548 97.5856 62.6594C97.877 62.764 98.1886 62.7999 98.4961 62.7643L100.032 62.8513ZM97.9833 60.3754V51.7495C97.9707 51.6596 97.9762 51.568 97.9996 51.4803C98.023 51.3926 98.0638 51.3104 98.1195 51.2387C98.1753 51.1671 98.2448 51.1073 98.324 51.0631C98.4033 51.0188 98.4906 50.9909 98.5808 50.981H99.6053C99.6965 50.954 99.7928 50.9492 99.8863 50.9668C99.9798 50.9845 100.068 51.0242 100.143 51.0826C100.218 51.1411 100.278 51.2166 100.318 51.3028C100.358 51.3891 100.377 51.4838 100.373 51.5788V60.3742C100.373 60.8861 100.117 61.1427 99.6956 61.1427H98.757C98.6658 61.1697 98.5695 61.1746 98.476 61.1569C98.3826 61.1392 98.2947 61.0995 98.2196 61.0411C98.1445 60.9827 98.0844 60.9072 98.0443 60.8209C98.0042 60.7346 97.9853 60.64 97.989 60.5449C97.989 60.459 97.989 60.459 97.989 60.3742L97.9833 60.3754ZM108.826 59.6973V60.4658C108.826 60.9777 108.57 61.2342 108.149 61.2342H107.722C107.21 61.2342 107.044 60.9777 107.044 60.4658V51.7495C107.044 51.2376 107.301 50.981 107.722 50.981H108.061C108.152 50.954 108.248 50.9492 108.342 50.9668C108.435 50.9845 108.523 51.0242 108.598 51.0826C108.673 51.1411 108.733 51.2166 108.773 51.3028C108.813 51.3891 108.832 51.4838 108.829 51.5788V53.1135H110.621V51.5766C110.621 50.0397 109.944 49.2712 108.488 49.2712H107.287C105.836 49.2712 105.153 50.0397 105.153 51.5766V60.459C105.153 61.9959 105.831 62.7643 107.287 62.7643H108.482C109.933 62.7643 110.616 61.9959 110.616 60.459V59.6046L108.826 59.6973ZM115.228 62.8615V49.2712H113.436V62.7643L115.228 62.8615ZM122.824 62.8615V61.2286H120.178V56.7026H122.568V55.081H120.178V50.981H122.824V49.3594H118.386V62.8525L122.824 62.8615ZM130.166 50.9957V49.2712H124.874V50.894H126.581V62.7598H128.373V50.894L130.166 50.9957ZM135.97 57.827L138.19 49.2871H136.397L135.2 55.1657H135.114L133.746 49.2712H131.954L134.173 57.8112V62.7643H135.966L135.97 57.827Z" fill="black"/>
</svg>
