<svg width="807" height="328" viewBox="0 0 807 328" fill="none" xmlns="http://www.w3.org/2000/svg">
<path d="M795.147 40.3099C798.964 45.7156 797.872 50.752 795.776 56.1852C791.889 66.2581 788.492 76.5224 784.996 86.743C783.17 92.0836 781.872 97.624 779.764 102.844C778.145 106.854 779.572 109.515 782.183 112.142C786.27 116.253 790.361 120.361 794.439 124.48C802.763 132.887 807.526 142.706 806.908 154.843C806.617 160.578 804.56 164.112 799.016 166.164C787.754 170.332 775.906 172.141 764.17 174.281C758.957 175.232 754.066 177.339 748.601 177.521C741.175 177.768 735.042 174.948 730.287 169.996C726.275 165.818 723.024 165.491 717.716 167.362C707.552 170.944 696.778 172.413 686.178 174.411C682.124 175.175 678.2 176.694 674.132 177.302C663.994 178.819 655.996 174.458 649.353 167.281C646.666 164.379 644.723 163.432 640.647 165.745C633.236 169.952 624.429 170.179 616.271 172.317C612.179 173.389 607.952 173.947 603.305 174.828C607.009 179.027 610.174 183.049 613.785 186.621C622.703 195.441 623.562 200.313 619.117 212.054C615.476 221.67 612.604 231.577 609.378 241.351C608.654 243.543 608.733 245.475 610.324 247.404C614.992 253.066 616.247 260.016 616.772 266.983C617.474 276.3 612.497 281.617 603.129 282.392C596.157 282.969 594.496 284.709 592.838 291.431C590.69 300.139 588.39 308.83 585.64 317.363C583.161 325.051 574.961 328.388 567.072 326.724C555.508 324.285 547.224 317.027 539.291 309.206C531.248 301.278 523.702 292.847 515.743 284.83C510.358 279.406 504.539 274.416 499.109 269.035C496.72 266.668 495.451 265.34 492.384 268.815C487.565 274.278 487.252 273.808 492.041 278.644C497.91 284.571 501.606 291.947 503.593 299.849C506.251 310.42 500.496 317.217 489.289 318.395C472.961 320.111 456.748 322.669 440.671 325.985C430.247 328.135 420.897 327.126 413.45 318.538C412.169 317.06 410.282 316.126 408.81 314.791C407.426 313.538 406.355 313.597 404.928 314.8C396.573 321.853 386.726 324.023 376.065 323.376C369.785 322.995 365.522 318.893 361.148 315.105C358.261 312.604 355.513 309.927 352.857 307.179C351.085 305.345 350.411 306.126 349.91 308.045C349.239 310.618 348.712 313.239 347.872 315.754C344.994 324.363 338.788 327.737 329.991 325.605C322.731 323.845 315.435 322.202 309.237 317.642C307.85 316.622 306.312 316.647 304.516 316.926C283.228 320.228 261.935 323.481 240.69 327.068C234.363 328.136 228.627 325.081 223.964 320.761C212.698 310.321 201.401 299.863 191.922 287.724C188.289 283.071 185.056 278.04 184.789 271.585C184.453 263.453 189.249 258.762 195.024 254.522C206.017 246.452 215.873 237.121 225.381 227.392C227.01 225.725 225.739 224.761 224.677 223.696C221.028 220.038 217.512 216.234 213.694 212.762C202.816 202.869 204.688 194.223 211.002 182.861C211.699 181.606 213.609 180.602 212.76 179.072C211.958 177.626 210.016 178.409 208.603 178.42C194.838 178.529 184.109 172.557 175.265 162.352C171.682 158.217 167.596 154.51 163.655 150.695C160.328 147.473 156.703 148.09 154.423 152.34C151.13 158.479 148.429 164.923 144.353 170.653C139.888 176.93 132.072 179.244 124.974 176.467C113.658 172.041 105.305 163.829 97.1467 155.303C94.6244 152.667 92.1559 149.956 89.4243 147.55C85.2473 143.871 82.0158 139.618 79.9464 133.014C77.3919 141.343 75.141 148.544 72.9881 155.774C72.1823 158.48 71.6022 161.254 70.9232 163.998C68.3682 174.322 59.2038 179.818 48.9209 176.833C39.5042 174.099 30.8452 170.428 23.7054 162.831C17.6693 156.409 11.2086 150.272 4.91954 144.022C-0.000600815 139.133 -0.27816 133.322 0.132387 126.968C0.837238 116.061 4.80961 105.958 7.36658 95.5118C10.7953 81.5041 14.7138 67.6126 17.9503 53.5625C20.8137 41.1322 23.6212 28.6624 24.91 15.925C25.2748 12.3198 27.7582 10.4695 30.8538 9.27274C37.5543 6.68236 44.5763 5.59619 51.6568 4.59227C65.6167 2.61293 79.5276 0.476545 93.6926 0.293817C99.4015 0.220171 104.306 1.72258 108.435 5.25399C114.332 10.297 119.976 15.6453 125.004 21.6094C131.609 29.446 131.093 28.3549 135.424 20.6753C139.149 14.0686 143.311 8.08827 149.346 3.49071C152.063 1.42025 155.071 0.502475 158.585 0.322119C171.679 -0.349901 184.426 0.943938 196.805 5.52156C201.455 7.24078 205.333 10.0467 208.908 13.254C212.724 16.6783 216.209 20.4771 219.773 24.1757C221.149 25.6041 222.106 26.5877 223.267 23.8974C226.817 15.6701 234.453 12.6129 241.987 9.51406C249.525 6.41392 257.209 3.59312 265.16 1.90855C277.353 -0.674437 289.596 -1.37565 301.21 4.59523C305.229 6.66202 308.553 9.72946 311.77 12.8461C316.167 17.1054 320.423 21.5108 325.531 26.65C326.641 18.8804 328.659 12.3608 335.878 10.0606C342.177 8.05378 348.711 6.66582 355.23 5.5009C365.011 3.75303 374.846 2.25639 384.702 0.996587C393.131 -0.0808025 401.678 -1.03266 409.276 4.34128C410.476 5.19039 411.629 5.4089 413.004 4.81297C426.125 -0.877019 437.223 4.77431 448.142 11.1845C452.51 13.749 455.611 17.7796 459.183 21.2533C460.871 22.8953 461.751 23.5485 463.708 21.0405C468.021 15.5129 473.748 12.9534 481.112 14.1709C491.707 15.9224 501.387 19.3978 509.075 27.1817C511.066 29.1977 512.016 28.6043 512.899 26.3664C515.04 20.9396 517.847 15.8463 520.889 10.8889C528.634 -1.73446 537.074 -1.05372 548.487 4.58691C551.874 6.26044 554.892 8.72963 557.937 11.0217C559.561 12.2441 561.272 12.877 563.039 12.0825C576.088 6.21642 590.237 5.06136 604.043 2.53708C610.87 1.28897 617.811 0.665472 624.791 0.251673C632.592 -0.210841 638.862 2.42242 644.173 7.56817C646.353 9.68056 647.301 9.25529 648.703 7.17505C654.85 -1.94692 665.138 -0.63397 672.957 2.0259C687.198 6.87036 696.846 17.7595 706.762 28.2447C707.213 28.7217 707.442 29.417 707.911 29.8684C709.938 31.8192 712.057 35.3192 714.065 35.2675C717.266 35.1852 716.149 30.7644 717.399 28.4329C719.3 24.8863 720.756 21.1436 721.678 17.2611C725.803 -0.113056 736.841 -2.16264 750.766 2.00526C756.647 3.7655 762.033 7.01721 766.61 11.183C776.581 20.2585 786.272 29.6304 795.147 40.3099Z" fill="#1D0000"/>
</svg>
