<svg width="360" height="73" viewBox="0 0 360 73" fill="none" xmlns="http://www.w3.org/2000/svg">
<mask id="path-1-outside-1_414_373" maskUnits="userSpaceOnUse" x="-7" y="-6" width="374" height="84" fill="black">
<rect fill="white" x="-7" y="-6" width="374" height="84"/>
<path d="M42.195 55.3125L48.57 54.8125L62.7888 1.6875L78.7888 0.375L60.3513 69.125L22.0075 72.25L22.5075 70.4375L0.132507 72.25L18.57 3.5L34.5388 2.1875L20.32 55.3125L26.695 54.8125L40.9138 1.6875L56.9138 0.375L42.195 55.3125ZM83.63 3.5L121.974 0.375L117.786 16L95.4113 17.8125L92.4738 28.75L114.849 26.9375L110.661 42.5625L88.2863 44.375L85.38 55.3125L107.724 53.5L103.536 69.125L65.1925 72.25L83.63 3.5ZM128.565 55.3125L150.909 53.5L146.721 69.125L108.378 72.25L126.815 3.5L142.784 2.1875L128.565 55.3125ZM178.125 54.8125L181.062 43.875L197.031 42.5625L189.906 69.125L151.562 72.25L170 3.5L208.344 0.375L201.219 26.9375L185.25 28.25L188.188 17.3125L181.781 17.8125L171.75 55.3125L178.125 54.8125ZM231.373 17.3125L224.966 17.8125L214.935 55.3125L221.31 54.8125L231.373 17.3125ZM213.185 3.5L251.529 0.375L233.091 69.125L194.748 72.25L213.185 3.5ZM274.526 17.3125L268.151 17.8125L253.933 70.9375L237.933 72.25L256.37 3.5L294.714 0.375L294.214 2.1875L316.589 0.375L298.151 69.125L282.183 70.4375L296.401 17.3125L290.026 17.8125L275.808 70.9375L259.808 72.25L274.526 17.3125ZM321.43 3.5L359.774 0.375L355.586 16L333.211 17.8125L330.274 28.75L352.649 26.9375L348.461 42.5625L326.086 44.375L323.18 55.3125L345.524 53.5L341.336 69.125L302.992 72.25L321.43 3.5Z"/>
</mask>
<path d="M42.195 55.3125L48.57 54.8125L62.7888 1.6875L78.7888 0.375L60.3513 69.125L22.0075 72.25L22.5075 70.4375L0.132507 72.25L18.57 3.5L34.5388 2.1875L20.32 55.3125L26.695 54.8125L40.9138 1.6875L56.9138 0.375L42.195 55.3125ZM83.63 3.5L121.974 0.375L117.786 16L95.4113 17.8125L92.4738 28.75L114.849 26.9375L110.661 42.5625L88.2863 44.375L85.38 55.3125L107.724 53.5L103.536 69.125L65.1925 72.25L83.63 3.5ZM128.565 55.3125L150.909 53.5L146.721 69.125L108.378 72.25L126.815 3.5L142.784 2.1875L128.565 55.3125ZM178.125 54.8125L181.062 43.875L197.031 42.5625L189.906 69.125L151.562 72.25L170 3.5L208.344 0.375L201.219 26.9375L185.25 28.25L188.188 17.3125L181.781 17.8125L171.75 55.3125L178.125 54.8125ZM231.373 17.3125L224.966 17.8125L214.935 55.3125L221.31 54.8125L231.373 17.3125ZM213.185 3.5L251.529 0.375L233.091 69.125L194.748 72.25L213.185 3.5ZM274.526 17.3125L268.151 17.8125L253.933 70.9375L237.933 72.25L256.37 3.5L294.714 0.375L294.214 2.1875L316.589 0.375L298.151 69.125L282.183 70.4375L296.401 17.3125L290.026 17.8125L275.808 70.9375L259.808 72.25L274.526 17.3125ZM321.43 3.5L359.774 0.375L355.586 16L333.211 17.8125L330.274 28.75L352.649 26.9375L348.461 42.5625L326.086 44.375L323.18 55.3125L345.524 53.5L341.336 69.125L302.992 72.25L321.43 3.5Z" fill="white"/>
<path d="M42.195 55.3125L37.3653 54.0185L35.535 60.8502L42.586 60.2972L42.195 55.3125ZM48.57 54.8125L48.961 59.7972L52.4859 59.5207L53.4 56.1052L48.57 54.8125ZM62.7888 1.6875L62.38 -3.29576L58.8694 -3.00779L57.9588 0.394767L62.7888 1.6875ZM78.7888 0.375L83.6181 1.67014L85.4576 -5.18885L78.38 -4.60826L78.7888 0.375ZM60.3513 69.125L60.7574 74.1085L64.2682 73.8223L65.1806 70.4201L60.3513 69.125ZM22.0075 72.25L17.1875 70.9204L15.2857 77.8144L22.4137 77.2335L22.0075 72.25ZM22.5075 70.4375L27.3275 71.7671L29.2283 64.8767L22.1038 65.4538L22.5075 70.4375ZM0.132507 72.25L-4.69684 70.9549L-6.53431 77.8064L0.536213 77.2337L0.132507 72.25ZM18.57 3.5L18.1604 -1.4832L14.6524 -1.19487L13.7407 2.20486L18.57 3.5ZM34.5388 2.1875L39.3688 3.48023L41.2041 -3.3772L34.1292 -2.7957L34.5388 2.1875ZM20.32 55.3125L15.49 54.0198L13.6619 60.8501L20.711 60.2972L20.32 55.3125ZM26.695 54.8125L27.086 59.7972L30.6109 59.5207L31.525 56.1052L26.695 54.8125ZM40.9138 1.6875L40.505 -3.29576L36.9944 -3.00779L36.0838 0.394767L40.9138 1.6875ZM56.9138 0.375L61.7434 1.66895L63.5807 -5.18869L56.505 -4.60826L56.9138 0.375ZM42.586 60.2972L48.961 59.7972L48.1791 49.8278L41.8041 50.3278L42.586 60.2972ZM53.4 56.1052L67.6188 2.98023L57.9588 0.394767L43.74 53.5198L53.4 56.1052ZM63.1975 6.67076L79.1975 5.35826L78.38 -4.60826L62.38 -3.29576L63.1975 6.67076ZM73.9594 -0.920143L55.5219 67.8299L65.1806 70.4201L83.6181 1.67014L73.9594 -0.920143ZM59.9451 64.1415L21.6014 67.2665L22.4137 77.2335L60.7574 74.1085L59.9451 64.1415ZM26.8275 73.5796L27.3275 71.7671L17.6875 69.1079L17.1875 70.9204L26.8275 73.5796ZM22.1038 65.4538L-0.271198 67.2663L0.536213 77.2337L22.9112 75.4212L22.1038 65.4538ZM4.96186 73.5451L23.3994 4.79514L13.7407 2.20486L-4.69684 70.9549L4.96186 73.5451ZM18.9796 8.4832L34.9483 7.1707L34.1292 -2.7957L18.1604 -1.4832L18.9796 8.4832ZM29.7088 0.894767L15.49 54.0198L25.15 56.6052L39.3688 3.48023L29.7088 0.894767ZM20.711 60.2972L27.086 59.7972L26.3041 49.8278L19.9291 50.3278L20.711 60.2972ZM31.525 56.1052L45.7438 2.98023L36.0838 0.394767L21.865 53.5198L31.525 56.1052ZM41.3225 6.67076L57.3225 5.35826L56.505 -4.60826L40.505 -3.29576L41.3225 6.67076ZM52.0841 -0.918955L37.3653 54.0185L47.0247 56.6065L61.7434 1.66895L52.0841 -0.918955ZM83.63 3.5L83.2239 -1.48348L79.7131 -1.19735L78.8007 2.20486L83.63 3.5ZM121.974 0.375L126.803 1.66932L128.64 -5.1849L121.568 -4.60848L121.974 0.375ZM117.786 16L118.19 20.9837L121.703 20.6991L122.616 17.2943L117.786 16ZM95.4113 17.8125L95.0076 12.8288L91.4961 13.1133L90.5824 16.5156L95.4113 17.8125ZM92.4738 28.75L87.6449 27.4531L85.8042 34.3066L92.8775 33.7337L92.4738 28.75ZM114.849 26.9375L119.678 28.2318L121.514 21.3812L114.445 21.9538L114.849 26.9375ZM110.661 42.5625L111.065 47.5462L114.578 47.2616L115.491 43.8568L110.661 42.5625ZM88.2863 44.375L87.8826 39.3913L84.3612 39.6766L83.4539 43.091L88.2863 44.375ZM85.38 55.3125L80.5477 54.0285L78.7302 60.8683L85.7843 60.2961L85.38 55.3125ZM107.724 53.5L112.553 54.7943L114.39 47.9429L107.319 48.5164L107.724 53.5ZM103.536 69.125L103.942 74.1085L107.454 73.8223L108.366 70.4193L103.536 69.125ZM65.1925 72.25L60.3632 70.9549L58.5247 77.81L65.5987 77.2335L65.1925 72.25ZM84.0362 8.48348L122.38 5.35848L121.568 -4.60848L83.2239 -1.48348L84.0362 8.48348ZM117.144 -0.919324L112.957 14.7057L122.616 17.2943L126.803 1.66932L117.144 -0.919324ZM117.383 11.0163L95.0076 12.8288L95.815 22.7962L118.19 20.9837L117.383 11.0163ZM90.5824 16.5156L87.6449 27.4531L97.3026 30.0469L100.24 19.1094L90.5824 16.5156ZM92.8775 33.7337L115.252 31.9212L114.445 21.9538L92.0701 23.7663L92.8775 33.7337ZM110.019 25.6432L105.832 41.2682L115.491 43.8568L119.678 28.2318L110.019 25.6432ZM110.258 37.5788L87.8826 39.3913L88.69 49.3587L111.065 47.5462L110.258 37.5788ZM83.4539 43.091L80.5477 54.0285L90.2123 56.5965L93.1186 45.659L83.4539 43.091ZM85.7843 60.2961L108.128 58.4836L107.319 48.5164L84.9757 50.3289L85.7843 60.2961ZM102.894 52.2057L98.7067 67.8307L108.366 70.4193L112.553 54.7943L102.894 52.2057ZM103.13 64.1415L64.7864 67.2665L65.5987 77.2335L103.942 74.1085L103.13 64.1415ZM70.0219 73.5451L88.4594 4.79514L78.8007 2.20486L60.3632 70.9549L70.0219 73.5451ZM128.565 55.3125L123.735 54.0198L121.902 60.8694L128.969 60.2961L128.565 55.3125ZM150.909 53.5L155.738 54.7943L157.575 47.9429L150.504 48.5164L150.909 53.5ZM146.721 69.125L147.127 74.1085L150.639 73.8223L151.551 70.4193L146.721 69.125ZM108.378 72.25L103.548 70.9549L101.71 77.81L108.784 77.2335L108.378 72.25ZM126.815 3.5L126.405 -1.4832L122.897 -1.19487L121.986 2.20486L126.815 3.5ZM142.784 2.1875L147.614 3.48023L149.449 -3.3772L142.374 -2.7957L142.784 2.1875ZM128.969 60.2961L151.313 58.4836L150.504 48.5164L128.161 50.3289L128.969 60.2961ZM146.079 52.2057L141.892 67.8307L151.551 70.4193L155.738 54.7943L146.079 52.2057ZM146.315 64.1415L107.971 67.2665L108.784 77.2335L147.127 74.1085L146.315 64.1415ZM113.207 73.5451L131.644 4.79514L121.986 2.20486L103.548 70.9549L113.207 73.5451ZM127.225 8.4832L143.193 7.1707L142.374 -2.7957L126.405 -1.4832L127.225 8.4832ZM137.954 0.894767L123.735 54.0198L133.395 56.6052L147.614 3.48023L137.954 0.894767ZM178.125 54.8125L178.516 59.7972L182.038 59.521L182.954 56.1094L178.125 54.8125ZM181.062 43.875L180.653 38.8918L177.146 39.18L176.234 42.5781L181.062 43.875ZM197.031 42.5625L201.861 43.8579L203.701 36.9975L196.622 37.5793L197.031 42.5625ZM189.906 69.125L190.312 74.1085L193.823 73.8224L194.736 70.4204L189.906 69.125ZM151.562 72.25L146.733 70.9549L144.895 77.81L151.969 77.2335L151.562 72.25ZM170 3.5L169.594 -1.48348L166.083 -1.19735L165.171 2.20486L170 3.5ZM208.344 0.375L213.173 1.67038L215.012 -5.18503L207.938 -4.60848L208.344 0.375ZM201.219 26.9375L201.628 31.9207L205.136 31.6324L206.048 28.2329L201.219 26.9375ZM185.25 28.25L180.421 26.9531L178.578 33.8152L185.66 33.2332L185.25 28.25ZM188.188 17.3125L193.016 18.6094L194.851 11.7772L187.798 12.3277L188.188 17.3125ZM181.781 17.8125L181.392 12.8277L177.865 13.1029L176.951 16.5204L181.781 17.8125ZM171.75 55.3125L166.92 54.0204L165.093 60.85L172.141 60.2972L171.75 55.3125ZM182.954 56.1094L185.891 45.1719L176.234 42.5781L173.296 53.5156L182.954 56.1094ZM181.472 48.8582L197.441 47.5457L196.622 37.5793L180.653 38.8918L181.472 48.8582ZM192.202 41.2671L185.077 67.8296L194.736 70.4204L201.861 43.8579L192.202 41.2671ZM189.5 64.1415L151.156 67.2665L151.969 77.2335L190.312 74.1085L189.5 64.1415ZM156.392 73.5451L174.829 4.79514L165.171 2.20486L146.733 70.9549L156.392 73.5451ZM170.406 8.48348L208.75 5.35848L207.938 -4.60848L169.594 -1.48348L170.406 8.48348ZM203.514 -0.920384L196.389 25.6421L206.048 28.2329L213.173 1.67038L203.514 -0.920384ZM200.809 21.9543L184.84 23.2668L185.66 33.2332L201.628 31.9207L200.809 21.9543ZM190.079 29.5469L193.016 18.6094L183.359 16.0156L180.421 26.9531L190.079 29.5469ZM187.798 12.3277L181.392 12.8277L182.17 22.7973L188.577 22.2973L187.798 12.3277ZM176.951 16.5204L166.92 54.0204L176.58 56.6046L186.611 19.1046L176.951 16.5204ZM172.141 60.2972L178.516 59.7972L177.734 49.8278L171.359 50.3278L172.141 60.2972ZM231.373 17.3125L236.202 18.6083L238.035 11.7773L230.983 12.3277L231.373 17.3125ZM224.966 17.8125L224.577 12.8277L221.05 13.1029L220.136 16.5204L224.966 17.8125ZM214.935 55.3125L210.105 54.0204L208.278 60.85L215.326 60.2972L214.935 55.3125ZM221.31 54.8125L221.701 59.7972L225.223 59.5209L226.139 56.1083L221.31 54.8125ZM213.185 3.5L212.779 -1.48348L209.268 -1.19735L208.356 2.20486L213.185 3.5ZM251.529 0.375L256.358 1.67014L258.197 -5.185L251.123 -4.60848L251.529 0.375ZM233.091 69.125L233.497 74.1085L237.008 73.8223L237.921 70.4201L233.091 69.125ZM194.748 72.25L189.918 70.9549L188.08 77.81L195.154 77.2335L194.748 72.25ZM230.983 12.3277L224.577 12.8277L225.355 22.7973L231.762 22.2973L230.983 12.3277ZM220.136 16.5204L210.105 54.0204L219.765 56.6046L229.796 19.1046L220.136 16.5204ZM215.326 60.2972L221.701 59.7972L220.919 49.8278L214.544 50.3278L215.326 60.2972ZM226.139 56.1083L236.202 18.6083L226.543 16.0167L216.481 53.5167L226.139 56.1083ZM213.591 8.48348L251.935 5.35848L251.123 -4.60848L212.779 -1.48348L213.591 8.48348ZM246.699 -0.920143L228.262 67.8299L237.921 70.4201L256.358 1.67014L246.699 -0.920143ZM232.685 64.1415L194.341 67.2665L195.154 77.2335L233.497 74.1085L232.685 64.1415ZM199.577 73.5451L218.014 4.79514L208.356 2.20486L189.918 70.9549L199.577 73.5451ZM274.526 17.3125L279.356 18.6065L281.186 11.7748L274.135 12.3278L274.526 17.3125ZM268.151 17.8125L267.76 12.8278L264.235 13.1043L263.321 16.5198L268.151 17.8125ZM253.933 70.9375L254.341 75.9208L257.852 75.6328L258.763 72.2302L253.933 70.9375ZM237.933 72.25L233.103 70.9549L231.264 77.8138L238.341 77.2333L237.933 72.25ZM256.37 3.5L255.964 -1.48348L252.453 -1.19735L251.541 2.20486L256.37 3.5ZM294.714 0.375L299.534 1.70465L301.436 -5.1894L294.308 -4.60848L294.714 0.375ZM294.214 2.1875L289.394 0.857855L287.493 7.7483L294.617 7.17118L294.214 2.1875ZM316.589 0.375L321.418 1.67014L323.256 -5.18143L316.185 -4.60868L316.589 0.375ZM298.151 69.125L298.561 74.1082L302.069 73.8199L302.981 70.4201L298.151 69.125ZM282.182 70.4375L277.353 69.1448L275.517 76.0022L282.592 75.4207L282.182 70.4375ZM296.401 17.3125L301.231 18.6052L303.059 11.7749L296.01 12.3278L296.401 17.3125ZM290.026 17.8125L289.635 12.8278L286.11 13.1043L285.196 16.5198L290.026 17.8125ZM275.807 70.9375L276.216 75.9208L279.727 75.6328L280.638 72.2302L275.807 70.9375ZM259.807 72.25L254.978 70.956L253.141 77.8137L260.216 77.2333L259.807 72.25ZM274.135 12.3278L267.76 12.8278L268.542 22.7972L274.917 22.2972L274.135 12.3278ZM263.321 16.5198L249.103 69.6448L258.763 72.2302L272.981 19.1052L263.321 16.5198ZM253.524 65.9542L237.524 67.2667L238.341 77.2333L254.341 75.9208L253.524 65.9542ZM242.762 73.5451L261.199 4.79514L251.541 2.20486L233.103 70.9549L242.762 73.5451ZM256.776 8.48348L295.12 5.35848L294.308 -4.60848L255.964 -1.48348L256.776 8.48348ZM289.894 -0.954645L289.394 0.857855L299.034 3.51715L299.534 1.70465L289.894 -0.954645ZM294.617 7.17118L316.992 5.35868L316.185 -4.60868L293.81 -2.79618L294.617 7.17118ZM311.759 -0.920143L293.322 67.8299L302.981 70.4201L321.418 1.67014L311.759 -0.920143ZM297.742 64.1418L281.773 65.4543L282.592 75.4207L298.561 74.1082L297.742 64.1418ZM287.013 71.7302L301.231 18.6052L291.571 16.0198L277.353 69.1448L287.013 71.7302ZM296.01 12.3278L289.635 12.8278L290.417 22.7972L296.792 22.2972L296.01 12.3278ZM285.196 16.5198L270.978 69.6448L280.638 72.2302L294.856 19.1052L285.196 16.5198ZM275.399 65.9542L259.399 67.2667L260.216 77.2333L276.216 75.9208L275.399 65.9542ZM264.637 73.544L279.356 18.6065L269.697 16.0185L254.978 70.956L264.637 73.544ZM321.43 3.5L321.024 -1.48348L317.513 -1.19735L316.601 2.20486L321.43 3.5ZM359.774 0.375L364.603 1.66932L366.44 -5.1849L359.368 -4.60848L359.774 0.375ZM355.586 16L355.99 20.9837L359.503 20.6991L360.416 17.2943L355.586 16ZM333.211 17.8125L332.808 12.8288L329.296 13.1133L328.382 16.5156L333.211 17.8125ZM330.274 28.75L325.445 27.4531L323.604 34.3066L330.677 33.7337L330.274 28.75ZM352.649 26.9375L357.478 28.2318L359.314 21.3812L352.245 21.9538L352.649 26.9375ZM348.461 42.5625L348.865 47.5462L352.378 47.2616L353.291 43.8568L348.461 42.5625ZM326.086 44.375L325.683 39.3913L322.161 39.6766L321.254 43.091L326.086 44.375ZM323.18 55.3125L318.348 54.0285L316.53 60.8683L323.584 60.2961L323.18 55.3125ZM345.524 53.5L350.353 54.7943L352.19 47.9429L345.119 48.5164L345.524 53.5ZM341.336 69.125L341.742 74.1085L345.254 73.8223L346.166 70.4193L341.336 69.125ZM302.992 72.25L298.163 70.9549L296.325 77.81L303.399 77.2335L302.992 72.25ZM321.836 8.48348L360.18 5.35848L359.368 -4.60848L321.024 -1.48348L321.836 8.48348ZM354.944 -0.919324L350.757 14.7057L360.416 17.2943L364.603 1.66932L354.944 -0.919324ZM355.183 11.0163L332.808 12.8288L333.615 22.7962L355.99 20.9837L355.183 11.0163ZM328.382 16.5156L325.445 27.4531L335.103 30.0469L338.04 19.1094L328.382 16.5156ZM330.677 33.7337L353.052 31.9212L352.245 21.9538L329.87 23.7663L330.677 33.7337ZM347.819 25.6432L343.632 41.2682L353.291 43.8568L357.478 28.2318L347.819 25.6432ZM348.058 37.5788L325.683 39.3913L326.49 49.3587L348.865 47.5462L348.058 37.5788ZM321.254 43.091L318.348 54.0285L328.012 56.5965L330.919 45.659L321.254 43.091ZM323.584 60.2961L345.928 58.4836L345.119 48.5164L322.776 50.3289L323.584 60.2961ZM340.694 52.2057L336.507 67.8307L346.166 70.4193L350.353 54.7943L340.694 52.2057ZM340.93 64.1415L302.586 67.2665L303.399 77.2335L341.742 74.1085L340.93 64.1415ZM307.822 73.5451L326.259 4.79514L316.601 2.20486L298.163 70.9549L307.822 73.5451Z" fill="#410000" mask="url(#path-1-outside-1_414_373)"/>
</svg>
