<svg width="374" height="83" viewBox="0 0 374 83" fill="none" xmlns="http://www.w3.org/2000/svg">
<path fill-rule="evenodd" clip-rule="evenodd" d="M324.188 3.98755L373.116 0L366.179 25.884L343.802 27.6966L343.619 28.3782L365.99 26.5661L359.054 52.4465L336.687 54.2583L336.505 54.9415L358.865 53.1278L351.929 79.0072L303 82.9949L324.188 3.98755ZM329.855 60.4974L332.762 49.5599L355.137 47.7474L359.324 32.1224L336.949 33.9349L339.887 22.9974L362.262 21.1849L366.449 5.5599L328.105 8.68489L309.668 77.4349L348.012 74.3099L352.199 58.6849L329.855 60.4974Z" fill="#410000"/>
<path d="M355.137 47.7474L332.762 49.5599L329.855 60.4974L352.199 58.6849L348.012 74.3099L309.668 77.4349L328.105 8.68489L366.449 5.5599L362.262 21.1849L339.887 22.9974L336.949 33.9349L359.324 32.1224L355.137 47.7474Z" fill="white"/>
<path fill-rule="evenodd" clip-rule="evenodd" d="M281.06 22.5019L274.685 23.0019L260.467 76.1269L244.467 77.4394L262.904 8.6894L301.248 5.5644L300.748 7.3769L323.123 5.5644L304.685 74.3144L288.717 75.6269L302.935 22.5019L296.56 23.0019L282.342 76.1269L266.342 77.4394L281.06 22.5019ZM260.166 81.1683L237.798 83.0032L258.987 3.99205L307.97 0L307.469 1.8161L329.79 0.00797224L308.603 79.0093L282.051 81.1916L282.058 81.167L259.675 83.0031L260.166 81.1683Z" fill="#410000"/>
<path d="M274.685 23.0019L260.467 76.1269L244.467 77.4394L262.904 8.6894L301.248 5.5644L300.748 7.3769L323.123 5.5644L304.685 74.3144L288.717 75.6269L302.935 22.5019L296.56 23.0019L282.342 76.1269L266.342 77.4394L281.06 22.5019L274.685 23.0019Z" fill="white"/>
<path fill-rule="evenodd" clip-rule="evenodd" d="M215.802 3.99204L264.731 0.00439453L243.542 79.0117L194.614 82.9994L215.802 3.99204ZM231.501 23.0019L237.907 22.5019L227.844 60.0019L221.469 60.5019L231.501 23.0019ZM219.719 8.68939L258.063 5.56439L239.626 74.3144L201.282 77.4394L219.719 8.68939Z" fill="#410000"/>
<path fill-rule="evenodd" clip-rule="evenodd" d="M201.282 77.4394L219.719 8.68939L258.063 5.56439L239.626 74.3144L201.282 77.4394ZM221.469 60.5019L231.501 23.0019L237.907 22.5019L227.844 60.0019L221.469 60.5019Z" fill="white"/>
<path fill-rule="evenodd" clip-rule="evenodd" d="M194.722 22.5019L188.315 23.0019L178.284 60.5019L184.659 60.0019L187.597 49.0644L203.565 47.7519L196.44 74.3144L158.097 77.4394L176.534 8.68942L214.878 5.56442L207.753 32.1269L191.784 33.4394L194.722 22.5019ZM189.303 38.6602L211.67 36.8218L221.546 0.00439453L172.617 3.99207L151.429 82.9994L200.357 79.0118L210.235 42.1869L187.868 44.0253L189.303 38.6602Z" fill="#410000"/>
<path d="M184.659 60.0019L187.597 49.0644L203.565 47.7519L196.44 74.3144L158.097 77.4394L176.534 8.68942L214.878 5.56442L207.753 32.1269L191.784 33.4394L194.722 22.5019L188.315 23.0019L178.284 60.5019L184.659 60.0019Z" fill="white"/>
<path fill-rule="evenodd" clip-rule="evenodd" d="M135.099 60.502L157.443 58.6895L153.256 74.3145L114.912 77.4395L133.349 8.68945L149.318 7.37695L135.099 60.502ZM141.763 54.945L164.109 53.1323L157.173 79.0117L108.244 82.9995L129.432 3.99459L155.984 1.81226L141.763 54.945Z" fill="#410000"/>
<path d="M149.318 7.37695L135.099 60.502L157.443 58.6895L153.256 74.3145L114.912 77.4395L133.349 8.68945L149.318 7.37695Z" fill="white"/>
<path fill-rule="evenodd" clip-rule="evenodd" d="M86.2474 3.99206L135.175 0.0045166L128.238 25.8885L105.861 27.7011L105.678 28.3828L128.049 26.5706L121.113 52.451L98.7457 54.2628L98.5641 54.9461L120.924 53.1323L113.988 79.0117L65.0591 82.9994L86.2474 3.99206ZM91.9144 60.5019L94.8206 49.5644L117.196 47.7519L121.383 32.1269L99.0081 33.9394L101.946 23.0019L124.321 21.1894L128.508 5.56441L90.1644 8.68941L71.7269 77.4394L110.071 74.3144L114.258 58.6894L91.9144 60.5019Z" fill="#410000"/>
<path d="M117.196 47.7519L94.8206 49.5644L91.9144 60.5019L114.258 58.6894L110.071 74.3144L71.7269 77.4394L90.1644 8.68941L128.508 5.56441L124.321 21.1894L101.946 23.0019L99.0081 33.9394L121.383 32.1269L117.196 47.7519Z" fill="white"/>
<path fill-rule="evenodd" clip-rule="evenodd" d="M48.7293 60.5018L55.1043 60.0018L69.3231 6.87683L85.3231 5.56433L66.8856 74.3143L28.5418 77.4393L29.0418 75.6268L6.66681 77.4393L25.1043 8.68933L41.0731 7.37683L26.8543 60.5018L33.2293 60.0018L47.4481 6.87683L63.4481 5.56433L48.7293 60.5018ZM69.6235 1.8354L70.115 0.000640392L47.7318 1.83676L47.7384 1.81214L21.1867 3.99447L0 82.9958L22.321 81.1876L21.82 83.0037L70.8025 79.0117L91.9919 0.000488281L69.6235 1.8354Z" fill="#410000"/>
<path d="M55.1043 60.0018L69.3231 6.87683L85.3231 5.56433L66.8856 74.3143L28.5418 77.4393L29.0418 75.6268L6.66681 77.4393L25.1043 8.68933L41.0731 7.37683L26.8543 60.5018L33.2293 60.0018L47.4481 6.87683L63.4481 5.56433L48.7293 60.5018L55.1043 60.0018Z" fill="white"/>
</svg>
