<svg width="129" height="157" viewBox="0 0 129 157" fill="none" xmlns="http://www.w3.org/2000/svg">
<path d="M116.112 124.476V37.3269C116.112 26.4447 112.545 17.6987 105.511 11.3333C99.1599 5.58589 90.249 1.97341 79.0243 0.596106C71.767 -0.294069 65.9446 0.0832924 64.5068 0.202176C63.0695 0.0779074 57.2463 -0.323893 49.9861 0.538943C38.7568 1.87276 29.843 5.45168 23.4896 11.1788C16.4552 17.5194 12.8887 26.2525 12.8887 37.1343V124.571C0.33221 134.161 0.0078701 144.567 0.000414 145.022L0 156.41H129V145.054C128.997 144.594 128.772 134.087 116.112 124.476ZM27.8643 16.0663C40.6664 4.50517 64.494 6.79171 64.494 6.79171C64.494 6.79171 88.257 4.56524 101.109 16.1967C106.711 21.2665 109.552 28.3763 109.552 37.3269V120.245C106.042 118.313 102.123 116.601 97.8223 115.145C97.2785 114.941 96.8029 114.777 96.3551 114.637C95.6704 114.278 93.678 113.217 91.401 111.856C87.3221 109.376 85.1022 107.721 83.8906 106.645V99.6996C95.8643 92.6176 103.223 78.7256 103.223 62.9117V41.9103H99.9436C80.1692 41.9103 64.9331 31.3401 64.7852 31.2361L59.6094 27.5689V33.9124C59.6094 34.8349 57.0594 37.7184 45.4159 39.9436C37.2797 41.499 28.9831 41.9099 28.8998 41.9145L25.7766 42.064V62.9121C25.7766 78.7265 33.1353 92.6184 45.1094 99.7001V106.65C43.6037 107.99 41.0649 109.758 37.8969 111.659C35.4873 113.114 33.3577 114.259 32.6386 114.641C32.1905 114.781 31.7141 114.946 31.169 115.149C26.849 116.64 22.9271 118.365 19.448 120.295V37.1339C19.4484 28.1969 22.2796 21.1082 27.8643 16.0663ZM79.0963 94.8652C74.7221 97.1418 69.8114 98.2966 64.5002 98.2966C59.189 98.2966 54.2783 97.1418 49.9041 94.8652L49.8941 94.8594C39.0641 89.271 32.3371 77.029 32.3371 62.9104V48.2551C35.6261 47.9937 41.0748 47.4461 46.5873 46.396C55.811 44.6389 61.7166 42.1108 64.4298 38.7316C70.0057 41.9286 81.8692 47.6246 96.6646 48.3835V62.91C96.6641 77.0294 89.9363 89.271 79.0963 94.8652ZM51.6695 102.748C55.6834 104.146 59.9789 104.856 64.5002 104.856C69.0232 104.856 73.3199 104.146 77.3309 102.749V106.732C75.5236 108.546 70.6341 112.796 64.5002 112.796C58.3622 112.796 53.4706 108.54 51.6695 106.733V102.748ZM122.441 149.85H6.55971V145.118C6.57711 144.78 7.18602 136.503 18.2877 128.742C22.3455 125.872 27.4123 123.38 33.3474 121.335L35.3995 120.598C35.5101 120.541 38.1408 119.174 41.2803 117.277C43.4454 115.978 46.1102 114.27 48.2708 112.549C51.3402 115.293 57.1282 119.355 64.4998 119.355C71.8739 119.355 77.6635 115.291 80.7313 112.547C82.527 113.974 84.937 115.603 88.0134 117.473C91.0344 119.279 93.5086 120.551 93.6125 120.604L95.6704 121.341C101.557 123.332 106.634 125.803 110.766 128.693C121.898 136.436 122.418 144.572 122.44 145.118V149.85H122.441V149.85Z" fill="#231F20"/>
</svg>
